<svg width="382" height="400" viewBox="0 0 382 400" fill="none" xmlns="http://www.w3.org/2000/svg">
<g clip-path="url(#clip0_16_505)">
<rect width="382" height="400" fill="white"/>
<path d="M85.0277 165.501C85.0185 165.5 85.0093 165.5 85 165.5C76.4245 165.5 69.5 158.769 69.5 150.5C69.5 142.231 76.4245 135.5 85 135.5C93.5755 135.5 100.5 142.231 100.5 150.5C100.5 158.799 93.7159 165.983 85.0277 165.501Z" stroke="#32A05F" stroke-linejoin="round"/>
<path d="M97 170L88.5 165L95.5 161.5L97 170Z" stroke="#32A05F"/>
<path d="M292.767 15.0586C298.938 18.2817 302.411 21.5672 304.553 28C305.338 31 305.338 31 305.6 33C306.66 32.8221 306.66 32.8221 307.742 32.6406L310.571 32.25C311.955 32.0412 311.955 32.0412 313.368 31.8281C316.066 32 316.066 32 318.164 33.5779C320.742 36.5682 321.668 39.2297 322.877 42.9258C323.098 43.5916 323.319 44.2574 323.548 44.9434C324.249 47.063 324.933 49.1874 325.616 51.3125C326.082 52.7288 326.549 54.1449 327.018 55.5605C328.272 59.3676 329.509 63.1794 330.718 67C331.114 68.2287 331.511 69.4574 331.919 70.7234C332.975 74.6016 332.853 77.1382 331.764 81C328.068 84.5398 322.958 85.7655 318.122 87.3555C317.206 87.662 316.29 87.9685 315.347 88.2842C313.415 88.9288 311.483 89.5699 309.549 90.2077C306.585 91.1862 303.626 92.1772 300.668 93.1699C298.789 93.795 296.911 94.4194 295.032 95.043C293.702 95.4882 293.702 95.4882 292.346 95.9424C291.522 96.213 290.697 96.4836 289.848 96.7624C289.124 97.0021 288.4 97.2418 287.654 97.4887C285.715 98 285.715 98 282.575 98V226C285.838 225.354 285.838 225.354 286.762 223C286.885 221.269 286.949 219.535 286.982 217.801C287.012 216.756 287.042 215.711 287.072 214.635C287.126 212.44 287.173 210.244 287.211 208.049C287.607 195.192 287.607 195.192 291.995 191C295.069 190.812 295.069 190.812 298.274 191C300.959 193.565 300.933 195.477 301.414 199C303.419 198.838 303.419 198.838 305.6 198C307.259 196.009 307.259 196.009 308.609 193.5C309.144 192.6 309.68 191.7 310.232 190.773C310.776 189.858 311.319 188.943 311.879 188C318.647 177.425 318.647 177.425 323.392 175C326.672 174.414 329.54 174.337 332.811 175C335.558 177.062 335.558 177.062 336.997 180C337.515 186.312 334.101 189.936 329.961 194.621C326.691 197.885 323.156 200.53 319.205 203C319.726 205.756 319.726 205.756 321.299 208C323.692 208.282 326.085 208.448 328.49 208.621C330.718 209 330.718 209 332.811 211C333.163 213.406 333.163 213.406 332.811 216C328.138 221.887 320.835 225.016 313.973 228C312.705 228.598 311.44 229.202 310.179 229.812L307.693 231V236C310.726 236.828 312.374 237.214 315.346 236.062C319.395 234.533 322.172 234.603 326.532 235C329.213 236.562 329.213 236.562 330.718 239C330.718 246.125 327.093 250.487 322.214 255.5C313.516 263.476 301.459 269.119 289.247 269.312C285.715 269 285.715 269 282.575 268C282.597 268.685 282.619 269.37 282.642 270.076C282.729 273.217 282.783 276.358 282.837 279.5C282.89 281.116 282.89 281.116 282.943 282.766C283.037 290.093 282.345 296.041 276.873 301.517C272.794 304.928 269.112 307.254 263.645 307.24C262.803 307.243 261.961 307.246 261.093 307.249C260.178 307.242 259.264 307.234 258.321 307.227L255.381 307.228C252.175 307.227 248.97 307.211 245.765 307.195C243.542 307.192 241.319 307.189 239.096 307.187C233.246 307.179 227.396 307.159 221.546 307.137C215.576 307.117 209.607 307.108 203.637 307.098C191.924 307.076 180.211 307.042 168.499 307C168.472 308.229 168.446 309.459 168.419 310.725C168.319 315.351 168.215 319.977 168.109 324.603C168.064 326.592 168.02 328.582 167.978 330.572C167.74 341.744 167.424 352.863 166.405 364H163.266V369L166.863 369.375L170.592 370L171.638 372H149.66V364H145.474C145.392 350.637 145.685 337.298 146.073 323.941C146.221 318.788 146.349 313.636 146.458 308.482C146.519 306.047 146.614 303.613 146.712 301.179C147.023 291.458 145.835 283.709 142.007 274.562C141.157 272.419 140.311 270.275 139.468 268.129C139.09 267.212 138.712 266.295 138.322 265.35C136.608 260.646 135.333 255.805 133.962 251V366H128.729L129.775 368C132.197 368.731 134.64 369.401 137.101 370V372H115.123V367H113.03C112.618 351.987 112.209 336.974 111.802 321.961C111.613 314.988 111.423 308.016 111.232 301.044C111.047 294.307 110.864 287.57 110.682 280.834C110.613 278.272 110.543 275.71 110.472 273.148C109.065 222.17 109.065 222.17 118.263 208L119.31 207C119.694 204.672 120.045 202.338 120.356 200H114.077L111.984 210C108.343 211.16 107.439 210.775 103.938 209.562C103.092 209.275 102.246 208.988 101.375 208.691C100.731 208.463 100.088 208.235 99.4247 208C99.9152 202.188 100.95 197.091 102.826 191.551C103.624 188.958 104.124 186.413 104.592 183.75C105.443 179.373 107.177 176.646 109.89 173L110.806 169.562C111.935 166.147 112.699 164.978 115.123 162.437C120.125 157.183 120.752 151.325 121.861 144.488C122.449 142 122.449 142 124.542 139H126.636L127.421 137.187C128.967 134.601 130.261 133.555 132.915 132C138.015 131.259 142.872 131.435 147.698 133.187C149.66 135 149.66 135 150.772 137.312C150.676 141.254 149.161 143.025 146.521 146C143.119 147.875 143.119 147.875 140.241 149V153H142.334L141.288 164L152.8 165C152.795 163.867 152.791 162.735 152.786 161.568C152.743 150.872 152.712 140.176 152.692 129.48C152.681 123.982 152.666 118.484 152.642 112.986C152.619 107.675 152.607 102.365 152.601 97.0546C152.598 95.0329 152.59 93.0112 152.579 90.9896C152.563 88.1487 152.561 85.308 152.562 82.467C152.555 81.6391 152.547 80.8112 152.54 79.9582C152.569 71.799 153.547 64.4943 159.079 58C165.07 52.7166 170.248 51.7034 178.239 51.7287C179.532 51.7209 179.532 51.7209 180.85 51.7129C182.715 51.7027 184.58 51.6969 186.445 51.695C189.397 51.6914 192.348 51.6746 195.3 51.6543C203.689 51.5989 212.079 51.5681 220.468 51.5437C225.605 51.5278 230.741 51.4976 235.877 51.4589C237.833 51.4473 239.79 51.4413 241.747 51.4412C244.48 51.441 247.213 51.4228 249.946 51.4006C251.159 51.4075 251.159 51.4075 252.396 51.4145C256.897 51.3563 259.36 50.9188 262.69 48L265.83 47L265.372 45.3125C263.429 37.6794 262.312 31.1272 266.447 23.9609C272.885 15.4075 282.023 11.0898 292.767 15.0586ZM162.219 65C158.473 70.3696 158.933 75.8604 158.961 82.1047C158.96 83.0125 158.96 83.9203 158.96 84.8557C158.961 87.8478 158.969 90.8399 158.977 93.832C158.979 95.91 158.981 97.9879 158.982 100.066C158.986 105.529 158.996 110.992 159.008 116.455C159.018 122.032 159.023 127.609 159.028 133.186C159.04 144.124 159.057 155.062 159.079 166C162.499 166.451 165.922 166.855 169.349 167.25C170.807 167.443 170.807 167.443 172.295 167.641L175.126 167.953C176.416 168.11 176.416 168.11 177.733 168.27C180.22 168.217 180.22 168.217 181.886 166.003C182.303 165.342 182.721 164.681 183.151 164H174.778V159C176.237 159.122 176.237 159.122 177.726 159.246C185.116 159.821 185.116 159.821 191.887 157.547C193.657 155.778 195.196 153.937 196.756 152L199.242 150.562C201.907 148.441 201.907 148.441 201.989 141H181.058V137H223.967V141H211.408C209.897 144.893 209.897 144.893 211.866 147.75L213.501 150C212.982 150.473 212.463 150.946 211.927 151.434C206.692 156.303 202.158 161.405 197.803 167L191.523 175H222.921V179C221.822 178.99 220.723 178.979 219.591 178.968C215.523 178.932 211.454 178.909 207.385 178.89C205.623 178.88 203.861 178.866 202.098 178.849C199.568 178.825 197.038 178.814 194.508 178.805C193.717 178.794 192.927 178.784 192.112 178.773C190.17 178.773 188.228 178.878 186.29 179L184.197 181C178.912 182.173 173.508 182.311 168.106 182.562C167.236 182.606 166.366 182.649 165.469 182.693C163.34 182.799 161.209 182.9 159.079 183C158.932 191.434 158.821 199.868 158.754 208.303C158.722 212.223 158.678 216.142 158.606 220.061C158.238 240.466 159.341 258.902 166.229 278.474C168.449 284.96 169.19 291.194 169.545 298C181.991 298.07 194.436 298.123 206.882 298.155C212.661 298.171 218.44 298.192 224.219 298.226C229.797 298.259 235.375 298.277 240.953 298.285C243.08 298.29 245.207 298.301 247.335 298.317C250.316 298.339 253.297 298.342 256.279 298.341C257.156 298.351 258.034 298.362 258.938 298.373C264.083 298.347 267.748 297.883 272.11 295C277.305 289.753 276.92 284.365 276.92 277.535C276.936 276.372 276.952 275.208 276.969 274.009C277.01 270.784 277.032 267.558 277.045 264.332C277.064 260.848 277.106 257.364 277.144 253.879C277.215 247.011 277.262 240.143 277.3 233.274C277.332 227.568 277.373 221.861 277.418 216.155C277.568 197.217 277.666 178.28 277.699 159.341C277.717 149.48 277.753 139.62 277.811 129.759C277.851 122.676 277.872 115.593 277.877 108.509C277.881 104.329 277.893 100.15 277.928 95.9697C277.959 92.0921 277.966 88.2152 277.953 84.3376C277.953 82.9226 277.962 81.5075 277.98 80.0927C278.389 71.6173 278.389 71.6173 274.818 64.1982C268.818 59.3286 263.991 59.664 256.346 59.6875C255.293 59.6714 254.24 59.6553 253.155 59.6387C252.145 59.638 251.135 59.6374 250.095 59.6367C249.173 59.6337 248.252 59.6307 247.302 59.6277C244.383 60.0798 243.475 60.7259 241.759 63C241.34 65.3227 240.985 67.6574 240.712 70C238.626 71.9938 234.482 71.1639 231.624 71.1679C230.818 71.1713 230.011 71.1746 229.18 71.178C227.471 71.1831 225.761 71.1854 224.052 71.1853C221.431 71.1875 218.81 71.2056 216.189 71.2246C214.532 71.2275 212.874 71.2295 211.216 71.2304C210.429 71.2376 209.642 71.2448 208.831 71.2522C203.275 71.2288 203.275 71.2288 200.942 69C200.594 66.6666 200.245 64.3333 199.896 62C195.886 58.1686 188.819 59.5857 183.412 59.5625C182.077 59.5296 180.741 59.4967 179.365 59.4629C169.518 59.368 169.518 59.368 162.219 65Z" fill="#32A05F"/>
<path d="M111.984 225H148.614C152.793 240.081 152.793 240.081 154.566 246.613C155.767 251.037 156.972 255.46 158.205 259.876C159.2 263.445 160.174 267.018 161.136 270.594C161.503 271.945 161.876 273.294 162.258 274.641C165.101 284.709 165.777 293.687 165.359 304C165.327 305.157 165.296 306.313 165.263 307.505C165.167 310.869 165.038 314.231 164.901 317.594C164.855 318.792 164.808 319.99 164.76 321.224C164.614 324.983 164.463 328.742 164.312 332.5C164.211 335.077 164.11 337.654 164.01 340.23C163.765 346.487 163.516 352.744 163.266 359H145.474C145.506 357.489 145.537 355.977 145.57 354.42C145.689 348.729 145.805 343.037 145.921 337.345C145.971 334.897 146.022 332.45 146.073 330.002C146.197 324.135 146.311 318.269 146.405 312.402C146.467 308.508 146.564 304.62 146.712 300.729C147.01 291.255 145.723 283.44 142.007 274.562C141.157 272.419 140.311 270.275 139.468 268.129C138.901 266.753 138.901 266.753 138.322 265.35C136.608 260.646 135.333 255.805 133.962 251V366H128.729L129.775 368C132.197 368.731 134.64 369.401 137.101 370V372H115.123V367H113.03C112.618 351.987 112.209 336.974 111.802 321.961C111.613 314.988 111.423 308.016 111.232 301.044C111.047 294.307 110.864 287.57 110.682 280.834C110.613 278.272 110.543 275.71 110.472 273.148C109.285 230.156 109.285 230.156 111.984 225Z" fill="#273339"/>
<path d="M292.767 15.0586C298.938 18.2817 302.411 21.5672 304.553 28C305.338 31 305.338 31 305.6 33C306.66 32.8221 306.66 32.8221 307.742 32.6406L310.571 32.25C311.955 32.0412 311.955 32.0412 313.368 31.8281C316.066 32 316.066 32 318.164 33.5779C320.742 36.5682 321.668 39.2297 322.877 42.9258C323.098 43.5916 323.32 44.2574 323.548 44.9434C324.249 47.063 324.933 49.1874 325.616 51.3125C326.082 52.7288 326.549 54.1449 327.018 55.5605C328.273 59.3676 329.509 63.1794 330.718 67C331.114 68.2287 331.511 69.4574 331.919 70.7234C332.975 74.6016 332.853 77.1382 331.764 81C328.063 84.5497 322.932 85.7679 318.085 87.3555C317.167 87.662 316.249 87.9685 315.303 88.2842C313.367 88.9288 311.43 89.5699 309.491 90.2077C306.517 91.1872 303.546 92.1776 300.576 93.1699C298.694 93.7949 296.812 94.4193 294.93 95.043C294.038 95.3398 293.146 95.6366 292.228 95.9424C291.403 96.213 290.579 96.4836 289.729 96.7624C289.003 97.0021 288.276 97.2418 287.528 97.4887C285.715 98 285.715 98 283.622 98C283.612 97.0317 283.602 96.0635 283.592 95.0659C283.55 91.4536 283.482 87.8422 283.405 84.2305C283.375 82.671 283.353 81.1114 283.338 79.5517C283.316 77.302 283.267 75.0539 283.213 72.8047C283.212 72.1138 283.211 71.4229 283.209 70.7111C283.053 65.7114 281.625 62.8784 278.389 59C273.955 55.0809 270.632 53.8943 264.692 53.8418C263.85 53.832 263.007 53.8222 262.139 53.8121C261.225 53.8063 260.31 53.8006 259.368 53.7947C258.397 53.7848 257.427 53.7749 256.427 53.7647C253.222 53.7331 250.017 53.7083 246.812 53.6836C244.589 53.663 242.366 53.642 240.142 53.6206C234.293 53.5654 228.443 53.516 222.593 53.4678C216.623 53.4175 210.653 53.3618 204.683 53.3066C192.971 53.1991 181.258 53.0976 169.545 53V52C170.65 51.9941 171.756 51.9882 172.894 51.9822C183.305 51.925 193.715 51.8523 204.125 51.7643C209.477 51.7195 214.829 51.6803 220.181 51.6535C225.345 51.6276 230.509 51.5872 235.673 51.5368C237.644 51.5201 239.615 51.5086 241.587 51.5024C244.346 51.4928 247.104 51.4647 249.863 51.4324C250.679 51.4338 251.496 51.4352 252.338 51.4367C256.852 51.3617 259.35 50.9318 262.69 48L265.83 47L265.372 45.3125C263.429 37.6794 262.312 31.1272 266.447 23.9609C272.885 15.4075 282.023 11.0898 292.767 15.0586Z" fill="#32A05F"/>
<path d="M144.427 132C148.05 133.315 149.169 133.979 150.772 137.313C150.676 141.254 149.161 143.025 146.521 146C143.119 147.875 143.119 147.875 140.241 149V153H142.334L141.876 156.563C141.785 157.301 141.693 158.04 141.598 158.801C141.34 160.63 140.968 162.444 140.568 164.25C140.177 168.74 140.978 172.588 141.815 177C142.796 182.668 143.324 187.071 140.634 192.313C136.97 196.274 133.177 199.064 127.682 200C125.328 200.068 122.973 200.085 120.618 200.063C119.393 200.054 118.168 200.045 116.906 200.035C115.505 200.018 115.505 200.018 114.077 200L111.984 210C108.343 211.16 107.439 210.775 103.938 209.563C102.669 209.131 102.669 209.131 101.375 208.691C100.731 208.463 100.088 208.235 99.4247 208C99.9152 202.188 100.95 197.091 102.826 191.551C103.624 188.958 104.124 186.414 104.592 183.75C105.443 179.373 107.177 176.646 109.89 173L110.806 169.563C111.935 166.147 112.699 164.978 115.123 162.438C120.125 157.183 120.752 151.325 121.861 144.488C122.449 142 122.449 142 124.542 139H126.636L127.421 137.188C131.288 130.72 137.446 131.279 144.427 132Z" fill="#28343A"/>
<path d="M132.915 249C135.164 251.149 135.525 252.123 136.365 254.973C136.61 255.781 136.855 256.589 137.107 257.422C137.493 258.729 137.493 258.729 137.886 260.062C139.641 265.923 141.43 271.679 143.898 277.305C146.469 283.777 147.976 289.286 147.767 296.238C147.756 297.008 147.744 297.777 147.732 298.57C147.691 301.047 147.63 303.523 147.567 306C147.535 307.674 147.505 309.348 147.475 311.022C147.394 315.329 147.291 319.635 147.177 323.941C147.109 326.564 147.047 329.187 146.985 331.811C146.717 342.558 146.219 353.273 145.474 364H149.66V372C150.874 371.926 152.088 371.853 153.338 371.777C171.765 370.768 190.175 370.956 208.622 371.101C213.224 371.135 217.826 371.164 222.428 371.193C231.105 371.248 239.781 371.31 248.457 371.373C258.351 371.446 268.245 371.511 278.14 371.576C298.457 371.71 318.774 371.852 339.09 372V373H74.3068V372H137.101V370L129.775 369L128.729 366H133.962C133.93 365.014 133.898 364.028 133.866 363.012C133.025 336.068 132.82 309.141 132.85 282.188C132.851 280.954 132.851 280.954 132.852 279.695C132.864 269.463 132.885 259.232 132.915 249Z" fill="#EBEDEC"/>
<path d="M183.151 250C192.139 249.977 201.127 249.959 210.115 249.948C214.288 249.943 218.461 249.936 222.634 249.925C226.658 249.914 230.682 249.908 234.706 249.905C236.245 249.903 237.783 249.9 239.322 249.894C241.47 249.887 243.617 249.886 245.765 249.886C247.602 249.883 247.602 249.883 249.476 249.88C252.225 250 252.225 250 253.271 251C253.374 252.33 253.408 253.666 253.41 255C253.412 255.804 253.413 256.609 253.414 257.438C253.41 258.283 253.406 259.129 253.402 260C253.406 260.846 253.41 261.691 253.414 262.563C253.413 263.367 253.412 264.171 253.41 265C253.409 265.743 253.408 266.485 253.407 267.25C253.271 269 253.271 269 252.225 270C250.111 270.099 247.994 270.128 245.878 270.129L241.761 270.139C240.267 270.137 238.773 270.135 237.278 270.133C235.757 270.134 234.236 270.134 232.715 270.136C229.523 270.137 226.331 270.135 223.139 270.13C219.038 270.125 214.938 270.128 210.838 270.134C207.696 270.138 204.553 270.136 201.411 270.134C199.899 270.133 198.387 270.134 196.874 270.136C194.764 270.139 192.654 270.134 190.544 270.129C188.74 270.128 188.74 270.128 186.899 270.127C184.197 270 184.197 270 183.151 269C183.06 267.584 183.039 266.164 183.048 264.746C183.052 263.892 183.055 263.038 183.059 262.158C183.067 261.26 183.076 260.363 183.085 259.438C183.09 258.536 183.095 257.634 183.1 256.705C183.112 254.47 183.129 252.235 183.151 250Z" fill="#32A05F"/>
<path d="M153.847 183H159.079C159.079 183.796 159.078 184.593 159.077 185.413C159.075 193.044 159.103 200.673 159.163 208.303C159.193 212.223 159.213 216.142 159.205 220.061C159.175 240.185 160.009 259.21 167.315 278.386C170.023 285.801 169.781 292.701 169.431 300.484C169.38 301.871 169.331 303.258 169.284 304.646C169.155 308.277 169.006 311.908 168.851 315.539C168.731 318.47 168.625 321.402 168.519 324.335C168.044 337.575 167.476 350.789 166.405 364H163.266V369L166.863 369.375L170.592 370L171.638 372H149.66V364H145.474V359C149.056 357.859 151.844 357.902 155.613 357.938C156.847 357.947 158.082 357.956 159.353 357.965C160.299 357.976 161.245 357.988 162.219 358C162.522 350.603 162.819 343.205 163.113 335.808C163.214 333.298 163.315 330.788 163.418 328.278C163.663 322.273 163.893 316.269 164.085 310.262C164.198 306.752 164.349 303.263 164.654 299.763C165.48 285.959 160.695 272.491 157.035 259.263C155.888 255.103 154.767 250.936 153.644 246.77C152.773 243.537 151.896 240.306 151.007 237.077C150.693 235.928 150.379 234.779 150.055 233.594C149.776 232.584 149.497 231.573 149.21 230.531C148.614 228 148.614 228 148.614 225H111.984V224H152.8C152.759 213.5 152.759 213.5 152.706 203C152.703 201.667 152.7 200.333 152.698 199C152.692 198.328 152.687 197.657 152.682 196.965C152.681 192.218 153.154 187.689 153.847 183Z" fill="#2C393E"/>
<path d="M182.128 139H224V142.739L211.745 143.674C212.537 146.575 213.304 148.582 214.809 151.152C214.302 151.594 213.795 152.037 213.273 152.492C208.91 156.379 205.001 160.357 201.364 164.827C198.818 167.837 196.068 170.697 193.362 173.587L222.979 174.522V178.261C221.371 178.289 221.371 178.289 219.73 178.317C215.759 178.388 211.789 178.471 207.819 178.558C206.099 178.593 204.38 178.626 202.66 178.655C200.191 178.698 197.722 178.752 195.253 178.809C194.096 178.825 194.096 178.825 192.915 178.841C188.584 178.825 188.584 178.825 185.191 181.065C182.819 181.44 180.435 181.757 178.043 182C177.905 179.72 177.804 177.446 177.723 175.164C177.681 174.519 177.638 173.874 177.594 173.209C177.544 171.319 177.544 171.319 178.043 167.978C180.616 166.127 180.616 166.127 183.149 165.174L176 164.239V159.565C176.949 159.574 177.898 159.582 178.876 159.591C187.58 159.581 187.58 159.581 194.574 155.417C195.533 154.308 196.491 153.198 197.447 152.087L200.511 150.217L202.553 142.739H182.128V139Z" fill="#F8BF9E"/>
<path d="M100.815 206L110.234 208C111.305 212.095 111.17 213.367 110.083 217.289C109.805 218.314 109.528 219.339 109.242 220.395C108.944 221.461 108.645 222.527 108.337 223.625C102.426 241.049 100.378 243.049 104 260L99.7681 255L95.5 265L94.5352 264V259L92.442 265L91.39 258L88.2557 263L89.3023 256L87.2092 260C86.1626 257 86.1626 257 86.8658 255.239C87.2381 254.567 87.6105 253.895 87.9941 253.203C91.0581 246.981 92.1673 240.472 93.4886 233.75C95.3729 224.283 97.6437 215.155 100.815 206Z" fill="#FEC0A1"/>
<path d="M292.767 15.0586C298.924 18.2748 302.434 21.5663 304.553 28C304.924 29.6624 305.282 31.3277 305.6 33L307.693 34L297.227 36L295.461 31.6875C294.047 28.6711 293.202 27.1337 290.555 24.9375C286.081 23.4107 282.997 23.3622 278.651 25.25C276.119 27.1313 275.157 28.0979 274.203 31C273.922 35.1119 274.272 38.985 275.249 43L277.342 44C276.75 44.1212 276.158 44.2423 275.548 44.3672C274.78 44.5347 274.012 44.7023 273.222 44.875C272.074 45.1186 272.074 45.1186 270.904 45.3672C268.753 45.8296 268.753 45.8296 267.923 48C265.83 47 265.83 47 265.168 45.2148C263.449 37.6146 262.355 31.0529 266.447 23.9609C272.885 15.4075 282.023 11.0898 292.767 15.0586Z" fill="#32A05F"/>
<path d="M131.868 246C134.125 249.234 134.222 250.078 134.213 253.803C134.216 254.791 134.219 255.78 134.222 256.798C134.215 257.881 134.207 258.965 134.199 260.081C134.2 261.222 134.2 262.364 134.2 263.54C134.199 267.322 134.182 271.105 134.166 274.887C134.162 277.506 134.159 280.124 134.157 282.743C134.151 288.938 134.133 295.132 134.112 301.326C134.089 308.378 134.077 315.43 134.067 322.482C134.045 336.988 134.008 351.494 133.962 366H128.729L129.775 368C132.197 368.731 134.64 369.401 137.101 370V372H115.123V367H113.03V361L130.822 362C130.746 360.253 130.671 358.507 130.593 356.707C129.802 336.263 129.684 315.831 129.71 295.375C129.711 294.675 129.712 293.974 129.713 293.253C129.725 284.502 129.746 275.751 129.775 267H131.868V246Z" fill="#313E44"/>
<path d="M153.847 183H159.079V248C146.895 230.537 151.1 202.654 153.847 183Z" fill="#32A05F"/>
<path d="M287.808 23C291.405 24.5498 293.505 25.789 295.179 29.2696C295.962 31.4994 296.645 33.7156 297.227 36C281.162 43 281.162 43 275.249 43C273.164 37.7706 271.959 33.5884 274.399 28.3125C278.108 23.7906 281.821 22.1828 287.808 23Z" fill="#F8FBF8"/>
<path d="M296.05 55C299 54.4782 303.212 55.5 305.599 60.7014C306.243 63.6506 306 65.19 305.599 68L302.5 71C303.5 73.5 303.452 73.5616 304.256 76.5385C304.499 77.555 304.743 78.5715 304.993 79.6188C305.193 80.4001 305.393 81.1814 305.599 81.9865L298.5 83.5L295 73L291.276 72.8643C288.59 71.2806 288.59 71.2806 286.501 68.81C285.648 63.7353 285.533 61.8626 289.038 57.6607C292.47 55.6335 292.47 55.6335 296.05 55Z" fill="#F9FBF9"/>
<path d="M198 85H240.91V90H198V85Z" fill="#D1E9D3"/>
<path d="M103.611 189H105.704L107.012 191.812C108.818 194.955 109.812 196.282 113.03 198C115.803 198.714 115.803 198.714 118.263 199L114.077 200L111.984 210C108.343 211.16 107.439 210.775 103.938 209.562C102.669 209.131 102.669 209.131 101.375 208.691C100.731 208.463 100.088 208.235 99.4247 208C99.9893 201.31 101.4 195.365 103.611 189Z" fill="#32A05F"/>
<path d="M82.6795 138.901C82.6795 138.403 83.0827 138 83.5801 138C84.3031 138 84.9585 138.431 85.2183 139.106C86.1796 141.602 87.0907 144.645 87.9123 147H90.0055V157C88 157 85.5 157 83.5 157C82.5 157 80.5 157 79 157C78 157 77 157 76.2978 156.833C74.4346 155.954 75 155 76.2978 154.496C73 153 76 152 76.3346 151.438C72.5 150 75.5 149 76.3632 148.371C73 147 75.5 146 76.4 146H82.6795V138.901Z" fill="#32A05F"/>
<path d="M145.474 363H166.405L163.266 364V369L166.863 369.375L170.592 370L171.638 372H149.66V364L145.474 363Z" fill="#32A05F"/>
<path d="M294.088 226C295.318 229.525 294.928 230.143 293.479 233.457C293.107 234.323 292.735 235.188 292.352 236.08C291.954 236.982 291.555 237.883 291.144 238.812C290.373 240.589 289.603 242.367 288.834 244.145C288.488 244.932 288.141 245.719 287.784 246.531C286.629 249.321 285.639 252.146 284.668 255C285.851 254.601 287.034 254.202 288.253 253.791C292.641 252.313 297.035 250.85 301.43 249.391C303.332 248.757 305.232 248.12 307.131 247.479C309.86 246.558 312.595 245.651 315.33 244.746C316.178 244.457 317.027 244.167 317.901 243.869C318.696 243.608 319.492 243.348 320.312 243.08C321.01 242.847 321.707 242.614 322.425 242.373C324.798 241.933 326.346 242.295 328.625 243C322.573 245 316.52 246.993 310.464 248.981C308.404 249.659 306.344 250.338 304.285 251.019C301.328 251.996 298.368 252.967 295.408 253.938C294.486 254.244 293.563 254.55 292.613 254.865C291.754 255.146 290.895 255.426 290.01 255.715C289.255 255.964 288.5 256.212 287.722 256.469C285.715 257 285.715 257 282.575 257C283.966 250.148 286.128 244.001 288.92 237.562C289.301 236.666 289.682 235.769 290.075 234.846C292.797 228.467 292.797 228.467 294.088 226Z" fill="#418C48"/>
<path d="M113.03 361H114.077V366H128.729L129.775 368C132.197 368.731 134.64 369.401 137.101 370V372H115.123V367H113.03V361Z" fill="#32A05F"/>
<path d="M152.8 192V224H151.753C150.95 220.528 150.203 217.047 149.464 213.562C149.238 212.589 149.012 211.615 148.779 210.611C147.407 203.967 147.54 199.143 150.707 193C151.753 192 151.753 192 152.8 192Z" fill="#F0F7F0"/>
<path d="M147.567 145C147.681 146.915 147.762 148.833 147.829 150.75L147.976 153.984C147.567 157 147.567 157 145.588 159.391C143.381 161 143.381 161 141.288 161L142.334 153H140.241L139.195 149C146.111 145 146.111 145 147.567 145Z" fill="#EFB89A"/>
<path d="M303.507 209L304.553 211C303.575 213.031 302.531 215.035 301.414 217C302.664 216.711 303.915 216.423 305.203 216.125C306.884 215.749 308.564 215.375 310.244 215C311.064 214.809 311.883 214.618 312.728 214.422C318.508 213.149 323.74 212.818 329.671 213V214L298.274 220L296.181 226C295.001 222.617 295.325 221.232 296.115 217.812C296.319 216.911 296.523 216.01 296.733 215.082C296.896 214.395 297.059 213.708 297.227 213L299.321 215L303.507 209Z" fill="#418C48"/>
<path d="M213.501 137H223.967V141H212.455L213.501 137Z" fill="#7EC57F"/>
<path d="M91 147H94V157H91V147Z" fill="#32A05F"/>
<path d="M211.408 137H213.501C212.324 139.972 211.175 142.334 209.315 145V142L204.082 145V141L207.157 140.125C210.473 139.358 210.473 139.358 211.408 137Z" fill="#EEC5A3"/>
<path d="M204.082 141L208.269 142L204.082 145V141Z" fill="#F7F7F1"/>
<rect x="193" y="173" width="33" height="6" fill="#D1E9D3"/>
<path d="M184.478 181.478L195.17 171.369" stroke="white"/>
<path d="M185 182L189.856 178.08L196.105 172.006" stroke="white" stroke-width="2"/>
<rect x="190" y="176" width="6" height="3" fill="white"/>
<rect x="174" y="129" width="60" height="63" fill="white"/>
<path d="M91 165L88.5 164.5H89V164V163.5L90.5 162L95 161.5L94.5 163.5L91 165Z" fill="white" stroke="white"/>
<rect x="87.4363" y="164.808" width="0.552936" height="1.62991" transform="rotate(-79.5396 87.4363 164.808)" fill="white"/>
<rect x="95.3884" y="160.251" width="0.430189" height="1" transform="rotate(14.3597 95.3884 160.251)" fill="white"/>
<rect x="177" y="130" width="25" height="4" fill="#D1E9D3"/>
<rect x="177" y="177" width="25" height="4" fill="#D1E9D3"/>
<rect x="177" y="102" width="25" height="4" fill="#D1E9D3"/>
<rect x="282.898" y="172.918" width="54.2349" height="97.2345" transform="rotate(0.150829 282.898 172.918)" fill="white"/>
<rect x="178.5" y="160.5" width="81" height="10" rx="5" stroke="#D9D9D9" stroke-opacity="0.5"/>
<rect x="178.5" y="110.5" width="81" height="10" rx="5" stroke="#D9D9D9" stroke-opacity="0.5"/>
<rect x="178.5" y="137.5" width="81" height="10" rx="5" stroke="#D9D9D9" stroke-opacity="0.5"/>
<rect x="178.5" y="184.5" width="81" height="10" rx="5" stroke="#D9D9D9" stroke-opacity="0.5"/>
<path d="M177.655 166.594L173 168.188V182L183.345 179.344L187.483 173.5L188 170.844L179.207 165L177.655 166.594Z" fill="#32A05F" stroke="#32A05F"/>
<path d="M177 152H200.025V156H177V152Z" fill="#D1E9D3"/>
<path d="M188.094 171.648L179.67 166.983C179.842 162.753 180.344 161.576 182.529 158.143C183.094 157.244 183.658 156.345 184.24 155.419C184.837 154.487 185.434 153.554 186.05 152.594C196.649 137.859 203.232 136.047 200.925 119.752C200.875 119.401 201.145 119.073 201.5 119.073L202.254 119.772C202.414 119.92 202.521 120.116 202.559 120.33L203.412 125.092L211.397 114.141C211.465 114.048 211.549 113.967 211.645 113.903C212.464 113.357 213.486 114.227 213.078 115.123L209.585 122.795L211.072 121.796C211.8 121.306 212.761 121.926 212.616 122.791L212.301 124.67L213.062 123.914C213.775 123.206 214.94 124.009 214.532 124.928C214.511 124.976 214.494 125.026 214.481 125.077L214 127C215.5 125.092 216.5 126 215.5 127.5C215.108 128.088 214.569 129.45 214 130C209.252 135.056 206.436 141.206 203.208 147.249C198.64 155.752 193.802 163.819 188.094 171.648Z" fill="#FEC0A1"/>
<path d="M201.537 262.844C201.537 262.645 201.506 262.469 201.443 262.316C201.385 262.16 201.279 262.02 201.127 261.895C200.979 261.77 200.771 261.65 200.506 261.537C200.244 261.424 199.912 261.309 199.51 261.191C199.088 261.066 198.707 260.928 198.367 260.775C198.027 260.619 197.736 260.441 197.494 260.242C197.252 260.043 197.066 259.814 196.938 259.557C196.809 259.299 196.744 259.004 196.744 258.672C196.744 258.34 196.812 258.033 196.949 257.752C197.086 257.471 197.281 257.227 197.535 257.02C197.793 256.809 198.1 256.645 198.455 256.527C198.811 256.41 199.207 256.352 199.645 256.352C200.285 256.352 200.828 256.475 201.273 256.721C201.723 256.963 202.064 257.281 202.299 257.676C202.533 258.066 202.65 258.484 202.65 258.93H201.525C201.525 258.609 201.457 258.326 201.32 258.08C201.184 257.83 200.977 257.635 200.699 257.494C200.422 257.35 200.07 257.277 199.645 257.277C199.242 257.277 198.91 257.338 198.648 257.459C198.387 257.58 198.191 257.744 198.062 257.951C197.938 258.158 197.875 258.395 197.875 258.66C197.875 258.84 197.912 259.004 197.986 259.152C198.064 259.297 198.184 259.432 198.344 259.557C198.508 259.682 198.715 259.797 198.965 259.902C199.219 260.008 199.521 260.109 199.873 260.207C200.357 260.344 200.775 260.496 201.127 260.664C201.479 260.832 201.768 261.021 201.994 261.232C202.225 261.439 202.395 261.676 202.504 261.941C202.617 262.203 202.674 262.5 202.674 262.832C202.674 263.18 202.604 263.494 202.463 263.775C202.322 264.057 202.121 264.297 201.859 264.496C201.598 264.695 201.283 264.85 200.916 264.959C200.553 265.064 200.146 265.117 199.697 265.117C199.303 265.117 198.914 265.062 198.531 264.953C198.152 264.844 197.807 264.68 197.494 264.461C197.186 264.242 196.938 263.973 196.75 263.652C196.566 263.328 196.475 262.953 196.475 262.527H197.6C197.6 262.82 197.656 263.072 197.77 263.283C197.883 263.49 198.037 263.662 198.232 263.799C198.432 263.936 198.656 264.037 198.906 264.104C199.16 264.166 199.424 264.197 199.697 264.197C200.092 264.197 200.426 264.143 200.699 264.033C200.973 263.924 201.18 263.768 201.32 263.564C201.465 263.361 201.537 263.121 201.537 262.844ZM207.83 263.535V258.66H208.92V265H207.883L207.83 263.535ZM208.035 262.199L208.486 262.188C208.486 262.609 208.441 263 208.352 263.359C208.266 263.715 208.125 264.023 207.93 264.285C207.734 264.547 207.479 264.752 207.162 264.9C206.846 265.045 206.461 265.117 206.008 265.117C205.699 265.117 205.416 265.072 205.158 264.982C204.904 264.893 204.686 264.754 204.502 264.566C204.318 264.379 204.176 264.135 204.074 263.834C203.977 263.533 203.928 263.172 203.928 262.75V258.66H205.012V262.762C205.012 263.047 205.043 263.283 205.105 263.471C205.172 263.654 205.26 263.801 205.369 263.91C205.482 264.016 205.607 264.09 205.744 264.133C205.885 264.176 206.029 264.197 206.178 264.197C206.639 264.197 207.004 264.109 207.273 263.934C207.543 263.754 207.736 263.514 207.854 263.213C207.975 262.908 208.035 262.57 208.035 262.199ZM210.566 256H211.656V263.77L211.562 265H210.566V256ZM215.939 261.777V261.9C215.939 262.361 215.885 262.789 215.775 263.184C215.666 263.574 215.506 263.914 215.295 264.203C215.084 264.492 214.826 264.717 214.521 264.877C214.217 265.037 213.867 265.117 213.473 265.117C213.07 265.117 212.717 265.049 212.412 264.912C212.111 264.771 211.857 264.57 211.65 264.309C211.443 264.047 211.277 263.73 211.152 263.359C211.031 262.988 210.947 262.57 210.9 262.105V261.566C210.947 261.098 211.031 260.678 211.152 260.307C211.277 259.936 211.443 259.619 211.65 259.357C211.857 259.092 212.111 258.891 212.412 258.754C212.713 258.613 213.062 258.543 213.461 258.543C213.859 258.543 214.213 258.621 214.521 258.777C214.83 258.93 215.088 259.148 215.295 259.434C215.506 259.719 215.666 260.061 215.775 260.459C215.885 260.854 215.939 261.293 215.939 261.777ZM214.85 261.9V261.777C214.85 261.461 214.82 261.164 214.762 260.887C214.703 260.605 214.609 260.359 214.48 260.148C214.352 259.934 214.182 259.766 213.971 259.645C213.76 259.52 213.5 259.457 213.191 259.457C212.918 259.457 212.68 259.504 212.477 259.598C212.277 259.691 212.107 259.818 211.967 259.979C211.826 260.135 211.711 260.314 211.621 260.518C211.535 260.717 211.471 260.924 211.428 261.139V262.551C211.49 262.824 211.592 263.088 211.732 263.342C211.877 263.592 212.068 263.797 212.307 263.957C212.549 264.117 212.848 264.197 213.203 264.197C213.496 264.197 213.746 264.139 213.953 264.021C214.164 263.9 214.334 263.734 214.463 263.523C214.596 263.312 214.693 263.068 214.756 262.791C214.818 262.514 214.85 262.217 214.85 261.9ZM218.389 259.92V265H217.299V258.66H218.33L218.389 259.92ZM218.166 261.59L217.662 261.572C217.666 261.139 217.723 260.738 217.832 260.371C217.941 260 218.104 259.678 218.318 259.404C218.533 259.131 218.801 258.92 219.121 258.771C219.441 258.619 219.812 258.543 220.234 258.543C220.531 258.543 220.805 258.586 221.055 258.672C221.305 258.754 221.521 258.885 221.705 259.064C221.889 259.244 222.031 259.475 222.133 259.756C222.234 260.037 222.285 260.377 222.285 260.775V265H221.201V260.828C221.201 260.496 221.145 260.23 221.031 260.031C220.922 259.832 220.766 259.688 220.562 259.598C220.359 259.504 220.121 259.457 219.848 259.457C219.527 259.457 219.26 259.514 219.045 259.627C218.83 259.74 218.658 259.896 218.529 260.096C218.4 260.295 218.307 260.523 218.248 260.781C218.193 261.035 218.166 261.305 218.166 261.59ZM222.273 260.992L221.547 261.215C221.551 260.867 221.607 260.533 221.717 260.213C221.83 259.893 221.992 259.607 222.203 259.357C222.418 259.107 222.682 258.91 222.994 258.766C223.307 258.617 223.664 258.543 224.066 258.543C224.406 258.543 224.707 258.588 224.969 258.678C225.234 258.768 225.457 258.906 225.637 259.094C225.82 259.277 225.959 259.514 226.053 259.803C226.146 260.092 226.193 260.436 226.193 260.834V265H225.104V260.822C225.104 260.467 225.047 260.191 224.934 259.996C224.824 259.797 224.668 259.658 224.465 259.58C224.266 259.498 224.027 259.457 223.75 259.457C223.512 259.457 223.301 259.498 223.117 259.58C222.934 259.662 222.779 259.775 222.654 259.92C222.529 260.061 222.434 260.223 222.367 260.406C222.305 260.59 222.273 260.785 222.273 260.992ZM229.012 258.66V265H227.922V258.66H229.012ZM227.84 256.979C227.84 256.803 227.893 256.654 227.998 256.533C228.107 256.412 228.268 256.352 228.479 256.352C228.686 256.352 228.844 256.412 228.953 256.533C229.066 256.654 229.123 256.803 229.123 256.979C229.123 257.146 229.066 257.291 228.953 257.412C228.844 257.529 228.686 257.588 228.479 257.588C228.268 257.588 228.107 257.529 227.998 257.412C227.893 257.291 227.84 257.146 227.84 256.979ZM233.406 258.66V259.492H229.979V258.66H233.406ZM231.139 257.119H232.223V263.43C232.223 263.645 232.256 263.807 232.322 263.916C232.389 264.025 232.475 264.098 232.58 264.133C232.686 264.168 232.799 264.186 232.92 264.186C233.01 264.186 233.104 264.178 233.201 264.162C233.303 264.143 233.379 264.127 233.43 264.115L233.436 265C233.35 265.027 233.236 265.053 233.096 265.076C232.959 265.104 232.793 265.117 232.598 265.117C232.332 265.117 232.088 265.064 231.865 264.959C231.643 264.854 231.465 264.678 231.332 264.432C231.203 264.182 231.139 263.846 231.139 263.424V257.119Z" fill="white"/>
</g>
<defs>
<clipPath id="clip0_16_505">
<rect width="382" height="400" fill="white"/>
</clipPath>
</defs>
</svg>
