<svg width="1000" height="1000" viewBox="0 0 1000 1000" fill="none" xmlns="http://www.w3.org/2000/svg">
<g clip-path="url(#clip0_17_788)">
<path d="M561.309 96.101C563.672 97.6679 565.484 99.5928 567.438 101.573C569.305 103.012 570.624 103.267 573 103.646C577.304 104.402 579.187 106.23 581.836 109.371C583 111.111 583 111.111 584 114.178L585 116.667C587.804 117.712 587.804 117.712 591 118.518C598.296 122.792 601.083 129.637 603.117 137.196C604.221 142.079 604.384 146.875 604.375 151.852C604.374 152.78 604.373 153.708 604.372 154.664C604.18 166.017 601.178 176.4 597 187.037C597.923 187.229 598.846 187.421 599.797 187.619C624.982 193.046 648.577 202.297 670 215.74C670.906 216.306 670.906 216.306 671.83 216.883C680.701 222.467 688.995 228.578 697 235.185C697.777 235.826 698.555 236.467 699.356 237.127C716.837 252.429 729.32 272.927 738 293.518C738.249 294.093 738.498 294.669 738.755 295.261C747.493 315.661 752.141 337.546 755 359.259C755.112 360.091 755.224 360.923 755.339 361.78C756.629 371.896 757.046 381.974 757.199 392.151C757.215 393.103 757.231 394.056 757.247 395.037C757.325 399.881 757.38 404.724 757.395 409.569C757.417 411.378 757.438 413.186 757.461 414.995C757.456 415.827 757.451 416.66 757.445 417.518C757.534 422.677 758.426 425.466 762 429.629C763.231 432.342 763.231 432.342 764.188 435.069C764.511 435.964 764.835 436.859 765.168 437.781C775.405 474.184 760.809 517.692 741 549.073C732.395 561.995 721.95 573.913 711 585.184C710.363 585.869 709.726 586.554 709.07 587.26C682.441 615.53 642.712 639.551 601.746 643.461C596.953 643.957 593.483 644.976 589.258 647.105C567.524 657.137 542.58 660.437 518.747 662.685C516.556 662.906 514.372 663.188 512.191 663.49C505.697 664.254 499.1 664.07 492.563 664.061C491.47 664.061 491.47 664.061 490.355 664.061C464.247 664.019 438.555 661.359 413 656.48C413.084 664.66 413.191 672.838 413.313 681.017C413.322 681.645 413.331 682.272 413.341 682.918C413.711 707.365 414.668 731.773 415.88 756.196C416.048 759.584 416.214 762.973 416.379 766.361C416.426 767.319 416.426 767.319 416.474 768.297C416.939 777.945 417.19 787.565 417 797.221H415C415.046 797.958 415.093 798.696 415.141 799.456C415.177 800.437 415.213 801.418 415.25 802.429C415.296 803.396 415.343 804.363 415.391 805.359C414.875 809.28 413.821 810.899 411 813.887C407.853 815.994 404.531 817.723 401.125 819.443C400.181 819.928 399.237 820.413 398.265 820.913C381.885 829.223 363.176 837.011 344 834.258C341.043 832.377 341.043 832.377 339 830.554C339.134 825.479 341.208 823.544 344.934 820.22C348.333 817.418 351.97 814.98 355.688 812.556C356.863 811.779 356.863 811.779 358.062 810.986C363.591 807.346 369.198 803.839 374.91 800.451C377.112 799.227 377.112 799.227 378 797.221H376C370.872 778.637 366.781 759.872 362.697 741.074C361.54 735.76 360.35 730.454 359.141 725.15C356.582 713.902 354.225 702.628 351.997 691.321C351.438 688.485 350.873 685.651 350.307 682.817C347.651 669.44 345.261 656.03 343 642.591C340.23 670.695 337.578 698.759 336.303 726.961C335.968 734.276 335.523 741.585 335.07 748.894C334.284 761.604 333.575 774.316 333 787.036L328 788.887L328.141 790.652C328.36 795.469 328.271 799.683 325.637 803.937C322.026 807.504 316.898 808.704 312 810.184C310.984 810.516 309.968 810.847 308.922 811.189C296.276 815.102 283.793 816.901 270.5 817.012C269.593 817.025 268.685 817.038 267.75 817.051C260.689 817.006 254.269 815.978 248.375 812.209C247 810.184 247 810.184 246.688 807.522C250.069 800.067 261.196 797.204 268.811 794.306C270.228 793.772 271.645 793.24 273.063 792.707C274.515 792.153 275.968 791.599 277.42 791.043C280.943 789.698 284.47 788.364 288 787.036C287.826 785.763 287.826 785.763 287.648 784.464C285.706 769.628 284.672 754.718 283.563 739.813C283.508 739.089 283.454 738.364 283.398 737.618C281.823 716.533 280.404 695.445 279.344 674.332C279.282 673.08 279.218 671.827 279.154 670.575C278.444 656.623 277.93 642.691 277.886 628.723C277.879 626.767 277.868 624.811 277.855 622.856C277.848 621.578 277.84 620.301 277.833 619.023C277.83 618.399 277.826 617.774 277.822 617.131C277.804 612.917 277.848 608.706 277.905 604.492C277.903 602.31 277.9 600.127 277.895 597.945C277.924 596.971 277.953 595.998 277.982 594.995C277.898 587.181 274.568 583.393 269 577.777C267.298 575.549 265.786 573.253 264.313 570.89C263.907 570.245 263.502 569.6 263.085 568.935C245.68 540.564 225.254 502.727 233.871 468.945C239.475 453.598 251.548 443.428 266.641 436.006C270.85 434.197 275.23 432.919 279.639 431.593C288.703 428.847 297.588 425.649 306.5 422.511C308.447 421.828 310.394 421.145 312.342 420.462C322.988 416.725 333.624 412.961 344.254 409.183C345.332 408.8 346.41 408.417 347.52 408.022C352.755 406.162 357.988 404.299 363.219 402.431C365.116 401.755 367.013 401.08 368.91 400.404C369.775 400.095 370.639 399.785 371.53 399.466C372.327 399.182 373.124 398.899 373.946 398.607C374.636 398.36 375.326 398.114 376.038 397.86C378.006 397.22 379.969 396.733 382 396.296V388.888L379.438 388.773C374.198 387.538 370.705 384.722 367.668 380.598C366.719 379.071 365.851 377.501 365 375.925C365.482 375.434 365.964 374.942 366.461 374.435C367.093 373.781 367.724 373.127 368.375 372.453C369.002 371.809 369.628 371.164 370.273 370.5C372.676 367.742 373.879 365.672 374.375 362.152C373.901 358.498 372.443 356.564 370 353.703C364.059 350.953 356.011 352.774 350 354.629H347C345.501 353.176 345.501 353.176 343.926 351.139C343.344 350.396 342.762 349.654 342.163 348.889C341.552 348.091 340.942 347.292 340.313 346.469C339.688 345.667 339.064 344.865 338.421 344.039C337.177 342.439 335.937 340.838 334.7 339.233C333.263 337.376 331.809 335.532 330.336 333.698C325.836 328.084 323.479 324.823 324 317.592C324.824 315.308 325.852 313.282 327 311.111C335.918 311.699 344.8 312.464 353.688 313.368C354.898 313.489 356.108 313.611 357.355 313.736C366.905 314.697 376.454 315.672 386 316.666C386.014 316.17 386.028 315.673 386.043 315.162C387.874 287.301 407.381 257.289 427 237.037C427.762 236.219 428.524 235.402 429.309 234.559C448.862 213.808 476.323 197.473 505 189.815H509C509.28 190.499 509.56 191.182 509.848 191.887C516.044 206.414 516.044 206.414 528.086 216.713C530.36 217.788 532.161 218.725 534 220.37C535.999 226.675 533.195 232.45 530 237.963L529 239.815C526.252 240.631 523.54 241.347 520.75 242.014C519.097 242.426 517.445 242.84 515.793 243.254C514.976 243.457 514.159 243.66 513.318 243.869C493.935 248.682 481.509 255.267 471 271.296C462.957 284.476 457.332 298.328 455.116 313.328C454.083 320.054 452.785 326.714 451.398 333.383C451.157 334.557 450.916 335.731 450.667 336.94C450.035 340.012 449.4 343.084 448.764 346.155C448.111 349.308 447.462 352.462 446.813 355.617C445.545 361.769 444.274 367.922 443 374.073C439.063 372.858 438.173 371.114 435.813 367.997C434.739 366.592 434.739 366.592 433.645 365.158C433.102 364.433 432.559 363.709 432 362.962L427 363.888C427.225 369.709 428.616 372.683 432.625 377.162C434 378.703 434 378.703 435 380.555C424.946 379.17 416.92 372.775 410.097 366.175C408.555 364.689 408.555 364.689 406 362.962C403.278 362.793 403.278 362.793 401 363.888C397.606 368.602 398.45 374.127 399 379.629C400.498 383.904 403.555 386.738 407 389.814V391.666L386 390.74C390.825 395.208 390.825 395.208 395.656 399.67C397.193 401.1 398.714 402.544 400.219 404.003C413.845 417.074 429.585 427.12 448 433.333C447.948 434.538 447.895 435.743 447.841 436.984C447.66 441.467 447.545 445.949 447.451 450.434C447.401 452.372 447.332 454.31 447.246 456.248C446.226 466.934 446.226 466.934 450.005 476.535C452.666 478.073 454.97 478.903 458 479.629C458.676 479.858 459.352 480.087 460.049 480.324C462.159 481.041 462.159 481.041 465.563 481.712C466.76 481.984 467.958 482.256 469.191 482.537C484.342 485.247 499.429 485.517 514.813 485.474C515.887 485.474 516.961 485.473 518.068 485.473C534.091 485.458 549.774 484.873 565.64 482.662C568.114 482.394 570.512 482.364 573 482.407C573.262 481.595 573.523 480.783 573.793 479.947C577.243 471.099 584.546 461.749 593 456.481C595.348 456.074 597.563 455.904 599.949 455.866C602.571 455.468 603.343 454.661 605 452.777L607 449.999C609.969 448.748 609.969 448.748 613.5 447.569C617.819 446.155 617.819 446.155 622 444.444C622.51 442.202 622.51 442.202 622.724 439.422C622.834 438.317 622.945 437.211 623.058 436.072C623.172 434.824 623.285 433.576 623.398 432.327C623.524 431.01 623.651 429.692 623.777 428.375C625.506 410.137 626.933 391.875 628.393 373.617C628.783 368.747 629.177 363.876 629.57 359.006C630.146 351.874 630.72 344.742 631.292 337.609C631.354 336.833 631.416 336.056 631.481 335.256C631.76 331.771 632.033 328.287 632.29 324.802C632.375 323.652 632.46 322.501 632.548 321.316C632.618 320.338 632.689 319.36 632.761 318.353C633.048 315.215 633.567 312.149 634.156 309.05C635.836 300.105 636.353 291.248 636.438 282.176C636.46 281.041 636.482 279.906 636.504 278.737C636.485 270.806 635.194 264.964 629.938 258.622C625.595 255.457 620.963 253.156 616 250.926C615.224 250.57 614.448 250.214 613.648 249.848C606.139 246.881 598.213 246.29 590.148 245.65C583.792 245.048 580.383 244.21 576 239.815C574.574 237.937 574.574 237.937 573.688 236.169C573.382 235.587 573.077 235.006 572.762 234.407C570.414 228.243 570.208 221.258 571 214.815C573.063 212.21 573.063 212.21 576 210.185C578.931 207.972 581.215 205.887 583 202.778C583.434 198.335 582.799 194.198 582 189.815C581.822 188.792 581.644 187.769 581.461 186.715C581.018 184.342 580.535 181.986 580 179.629L581.938 178.819C584.152 177.937 584.152 177.937 585 175.926C585.25 173.148 585.25 173.148 585 170.37C583.123 168.267 583.123 168.267 580.125 168.113C576.793 168.239 576.793 168.239 574.625 170.833L573 173.148L570 172.222C570.031 171.424 570.031 171.424 570.064 170.61C570.147 168.177 570.199 165.744 570.25 163.31C570.3 162.055 570.3 162.055 570.352 160.775C570.438 155.322 569.919 152.301 566 148.148C563.284 146.89 561.092 147.1 558.063 147.106C556.471 147.103 556.471 147.103 554.848 147.099C551.924 147.106 551.924 147.106 549 148.148C546.177 148.238 543.385 148.277 540.563 148.264C539.799 148.267 539.035 148.271 538.248 148.275C537.508 148.273 536.767 148.272 536.004 148.271C535.332 148.27 534.66 148.269 533.967 148.268C531.874 148.14 530.023 147.724 528 147.222C523.125 146.708 519.311 146.514 515 148.842C512.053 153.276 511.591 157.845 511 162.963H519L520 164.815L516.563 165.625L513 166.667L512 168.518H509V188.889C506.664 186.005 505.534 184.492 504.316 181.293C504.03 180.546 503.744 179.798 503.45 179.028C503.157 178.233 502.864 177.439 502.563 176.62C502.257 175.795 501.951 174.97 501.636 174.12C497.615 163.074 494.646 152.447 494.176 140.751C494.128 137.917 494.128 137.917 493 135.185C492.039 125.989 492.571 118.58 499 111.111C504.046 106.514 510.271 102.966 517.438 102.604L520 102.778L520.125 100.289C521.294 96.1935 523.284 94.9536 527 92.5926C537.149 89.486 552.093 91.3624 561.309 96.101Z" fill="#273339"/>
<path d="M561.309 96.101C563.672 97.6679 565.484 99.5928 567.438 101.573C569.305 103.012 570.624 103.267 573 103.646C577.304 104.402 579.187 106.23 581.836 109.371C583 111.111 583 111.111 584 114.178L585 116.667C587.804 117.712 587.804 117.712 591 118.518C598.296 122.792 601.083 129.637 603.117 137.196C604.221 142.079 604.384 146.875 604.375 151.852C604.374 153.244 604.374 153.244 604.372 154.664C604.18 166.017 601.177 176.4 597 187.037C597.923 187.229 598.846 187.421 599.797 187.619C624.982 193.046 648.577 202.297 670 215.741C670.906 216.306 670.906 216.306 671.83 216.883C680.701 222.467 688.995 228.578 697 235.185C697.777 235.826 698.555 236.467 699.355 237.127C716.837 252.429 729.32 272.927 738 293.518C738.249 294.094 738.498 294.669 738.755 295.262C747.493 315.661 752.14 337.546 755 359.259C755.112 360.091 755.224 360.923 755.339 361.78C756.629 371.896 757.046 381.974 757.199 392.151C757.215 393.103 757.231 394.056 757.247 395.038C757.325 399.882 757.38 404.724 757.395 409.569C757.417 411.378 757.438 413.186 757.461 414.995C757.456 415.828 757.451 416.66 757.445 417.518C757.534 422.677 758.426 425.466 762 429.629C763.23 432.342 763.23 432.342 764.188 435.069C764.511 435.964 764.835 436.859 765.168 437.782C775.405 474.185 760.809 517.693 741 549.073C732.395 561.995 721.95 573.913 711 585.184C710.363 585.87 709.726 586.555 709.07 587.261C682.441 615.53 642.712 639.551 601.746 643.461C596.953 643.957 593.483 644.976 589.258 647.105C567.524 657.138 542.58 660.437 518.747 662.686C516.556 662.906 514.372 663.188 512.191 663.49C505.697 664.254 499.1 664.07 492.563 664.062C491.47 664.061 491.47 664.061 490.355 664.061C464.306 664.02 438.475 661.535 413 656.481V678.703H412C411.62 637.139 411.62 637.139 412.875 623.61C412.953 622.752 413.032 621.894 413.113 621.01C413.536 617.103 414.117 613.76 416 610.184H418V608.333C433.116 601.784 449.468 598.433 465.625 594.849C466.864 594.574 468.102 594.299 469.378 594.016C478.997 591.885 478.997 591.885 482.969 591.019C491.699 589.102 499.434 587.245 507.164 582.884C510.665 581.152 514.23 580.111 518 578.992C531.387 574.928 546.584 567.928 555.125 557.291C555.788 556.487 556.45 555.682 557.133 554.853C561.925 547.149 562.435 539.463 562.563 530.729C562.798 522.468 563.192 514.587 565 506.481C565.307 504.929 565.307 504.929 565.621 503.345C568.812 488.17 574.811 472.21 587 461.111C587.458 460.656 587.915 460.201 588.387 459.733C592.047 456.436 595.066 455.944 599.949 455.866C602.571 455.468 603.343 454.661 605 452.777L607 449.999C609.969 448.748 609.969 448.748 613.5 447.569C617.819 446.155 617.819 446.155 622 444.444C622.51 442.202 622.51 442.202 622.724 439.422C622.834 438.317 622.945 437.211 623.058 436.072C623.172 434.824 623.285 433.576 623.398 432.327C623.524 431.01 623.651 429.692 623.777 428.375C625.506 410.137 626.933 391.875 628.393 373.618C628.783 368.747 629.177 363.876 629.57 359.006C630.146 351.874 630.72 344.742 631.292 337.61C631.354 336.833 631.416 336.056 631.481 335.256C631.759 331.772 632.033 328.287 632.29 324.802C632.375 323.652 632.46 322.502 632.548 321.317C632.618 320.338 632.689 319.36 632.761 318.353C633.048 315.215 633.567 312.149 634.156 309.05C635.836 300.105 636.353 291.248 636.438 282.176C636.46 281.041 636.482 279.907 636.504 278.738C636.485 270.806 635.194 264.964 629.938 258.622C625.595 255.457 620.963 253.156 616 250.926C615.224 250.57 614.448 250.214 613.648 249.848C606.139 246.881 598.213 246.29 590.147 245.65C583.792 245.048 580.383 244.21 576 239.815C574.574 237.937 574.574 237.937 573.688 236.169C573.229 235.297 573.229 235.297 572.762 234.407C570.414 228.243 570.208 221.258 571 214.815C573.063 212.21 573.063 212.21 576 210.185C578.931 207.972 581.215 205.887 583 202.778C583.434 198.335 582.799 194.198 582 189.815C581.733 188.28 581.733 188.28 581.461 186.715C581.018 184.342 580.535 181.986 580 179.63L581.938 178.819C584.152 177.937 584.152 177.937 585 175.926C585.25 173.148 585.25 173.148 585 170.37C583.123 168.267 583.123 168.267 580.125 168.113C576.793 168.239 576.793 168.239 574.625 170.833L573 173.148L570 172.222C570.021 171.69 570.042 171.158 570.064 170.61C570.147 168.177 570.199 165.744 570.25 163.31C570.3 162.055 570.3 162.055 570.352 160.775C570.438 155.322 569.919 152.301 566 148.148C563.283 146.89 561.092 147.1 558.063 147.106C557.002 147.104 555.941 147.102 554.848 147.099C551.924 147.106 551.924 147.106 549 148.148C546.177 148.238 543.385 148.277 540.563 148.264C539.799 148.267 539.035 148.271 538.248 148.275C537.508 148.273 536.767 148.272 536.004 148.271C535.332 148.27 534.66 148.269 533.967 148.268C531.874 148.14 530.023 147.724 528 147.222C523.125 146.708 519.31 146.514 515 148.843C512.053 153.276 511.591 157.845 511 162.963H519L520 164.815L516.563 165.625L513 166.667L512 168.518H509V188.889C506.664 186.005 505.534 184.492 504.316 181.293C504.03 180.546 503.744 179.798 503.45 179.028C503.157 178.233 502.864 177.439 502.563 176.62C502.257 175.795 501.951 174.97 501.636 174.12C497.615 163.074 494.646 152.447 494.176 140.752C494.128 137.917 494.128 137.917 493 135.185C492.038 125.989 492.571 118.58 499 111.111C504.046 106.514 510.271 102.966 517.438 102.604L520 102.778L520.125 100.289C521.294 96.1935 523.284 94.9536 527 92.5926C537.149 89.486 552.093 91.3624 561.309 96.101Z" fill="#646869"/>
<path d="M522.875 146.18C523.739 146.178 524.602 146.175 525.492 146.173C528 146.296 528 146.296 529.906 146.759C532.018 147.226 533.837 147.342 536.004 147.345C536.744 147.346 537.485 147.347 538.248 147.349C539.012 147.345 539.776 147.341 540.562 147.338C541.33 147.341 542.098 147.345 542.889 147.349C546.179 147.343 548.858 147.266 552 146.296C562.388 145.46 562.388 145.46 567.125 147.916C570.156 151.284 571.256 153.723 571.195 158.116C571.186 159.351 571.186 159.351 571.176 160.612C571.151 161.89 571.151 161.89 571.125 163.194C571.116 164.061 571.107 164.927 571.098 165.82C571.074 167.954 571.041 170.088 571 172.222L573 173.148L573.875 171.412C575 169.444 575 169.444 577 167.592C580.103 167.287 582.158 167.124 584.875 168.634C586.536 171.197 586.388 172.991 586 175.926C584.688 178.125 584.688 178.125 583 179.629H580C580.307 180.506 580.307 180.506 580.621 181.401C582.873 188.324 585.063 195.525 584 202.777C580.959 207.764 577.14 211.641 572 214.814C570.723 223.901 572.48 233.057 578 240.74C580.948 243.156 583.032 243.904 586.93 244.234C587.883 244.326 588.837 244.418 589.819 244.513C590.828 244.605 591.836 244.697 592.875 244.791C606.9 246.292 621.514 249.21 631.719 259.067C637.561 266.191 637.336 273.464 637.312 282.002C637.329 283.094 637.345 284.187 637.361 285.313C637.365 292.039 636.757 298.41 635.637 305.041C633.491 317.83 632.633 330.721 631.656 343.621C631.392 347.08 631.118 350.54 630.846 353.999C630.417 359.458 629.992 364.918 629.571 370.378C629.092 376.594 628.608 382.81 628.117 389.025C628.021 390.242 628.021 390.242 627.923 391.484C627.464 397.258 626.985 403.03 626.493 408.802C626.141 412.975 625.833 417.15 625.55 421.329C625.354 424.131 625.131 426.932 624.903 429.732C624.803 431.031 624.714 432.33 624.638 433.629C624.064 443.341 624.064 443.341 621.497 446.001C619.688 447.008 619.688 447.008 616 448.147C615.16 448.413 614.319 448.679 613.453 448.953C612.726 449.127 611.999 449.3 611.25 449.478C607.935 450.421 607.207 450.665 605.062 453.355L604 455.554C601.728 456.606 600.333 456.569 597.812 456.654C592.35 457.204 589.564 459.194 586 462.962C582.763 466.729 579.68 470.405 577.965 474.984C576.679 478.211 575.725 480.032 573 482.406C567.182 484.325 560.891 484.642 554.769 485.012C553.005 485.122 551.242 485.257 549.483 485.428C539.49 486.381 529.458 486.315 519.423 486.332C516.233 486.341 513.043 486.37 509.854 486.399C470.937 486.584 470.937 486.584 456 479.628C455.243 479.297 454.485 478.966 453.705 478.626C447.46 475.466 447.46 475.466 446.261 471.837C446.071 469.106 446.167 466.502 446.375 463.772C446.413 462.801 446.451 461.83 446.49 460.83C446.617 457.833 446.806 454.844 447 451.851C447.09 449.992 447.176 448.133 447.258 446.273C447.457 441.956 447.711 437.645 448 433.332C446.679 433.169 446.679 433.169 445.332 433.003C429.281 430.128 414.165 417.235 402.734 407.052C400.586 405.148 398.424 403.361 396.125 401.619C391.918 398.348 387.474 394.395 385 389.814C387.542 389.945 390.083 390.081 392.625 390.219C393.694 390.273 393.694 390.273 394.785 390.329C398.918 390.557 402.923 390.957 407 391.666C406.434 391.029 405.868 390.393 405.285 389.738C404.552 388.904 403.818 388.069 403.062 387.21C402.332 386.382 401.601 385.555 400.848 384.703C397.831 380.954 397.787 377.833 397.688 373.263C397.631 371.559 397.631 371.559 397.574 369.856C398.068 366.157 399.246 364.682 402 362.036C406.715 362.464 408.655 364.119 411.938 367.187C418.001 372.517 424.624 376.059 432 379.629L433 378.703C432.368 378.03 432.368 378.03 431.723 377.343C427.732 372.821 426 369.778 426 363.888L428 362.036C430.363 362.065 430.363 362.065 433 362.962C435.168 365.248 435.168 365.248 437.188 368.055C439.54 371.634 439.54 371.634 443 374.073C443.092 373.252 443.184 372.431 443.279 371.585C444.675 360.207 447.049 349.064 449.5 337.846C450.307 334.141 451.109 330.435 451.906 326.728C452.096 325.845 452.286 324.963 452.482 324.054C453.726 318.184 454.761 312.332 455.544 306.393C458.664 288 469.967 265.229 485.875 253.356C497.541 245.964 512.733 241.64 526.742 240.509C529.244 240.008 529.244 240.008 530.254 237.597C530.5 236.801 530.746 236.005 531 235.185L532.062 232.696C533.308 228.622 533.658 224.581 534 220.37L531.375 219.733C521.003 215.998 515.502 205.952 510.434 197.338C506.36 188.295 508.126 178.05 509 168.518H512L512.688 166.724C514 164.814 514 164.814 516.625 164.12L519 163.889L516.125 163.946C513 163.889 513 163.889 511 162.963C511.349 152.844 511.349 152.844 513.938 148.9C517.053 146.365 518.809 146.169 522.875 146.18Z" fill="#32A05F"/>
<path d="M509 189.814C509.28 190.498 509.559 191.182 509.848 191.887C516.044 206.414 516.044 206.414 528.086 216.713C530.36 217.788 532.161 218.725 534 220.37C535.999 226.675 533.195 232.45 530 237.963L529 239.815C526.252 240.631 523.54 241.347 520.75 242.014C519.097 242.426 517.445 242.84 515.793 243.254C514.568 243.558 514.568 243.558 513.318 243.869C493.935 248.682 481.509 255.267 471 271.296C462.957 284.476 457.332 298.328 455.116 313.328C454.083 320.054 452.785 326.714 451.398 333.384C451.157 334.557 450.916 335.731 450.667 336.94C450.035 340.012 449.4 343.084 448.764 346.155C448.111 349.309 447.462 352.463 446.813 355.617C445.545 361.77 444.274 367.922 443 374.074C439.063 372.859 438.173 371.115 435.813 367.998C435.097 367.061 434.382 366.124 433.645 365.158C433.102 364.434 432.559 363.709 432 362.963L427 363.889C427.225 369.709 428.616 372.683 432.625 377.163C434 378.704 434 378.704 435 380.555C424.946 379.17 416.92 372.775 410.097 366.175C408.555 364.689 408.555 364.689 406 362.963C403.278 362.794 403.278 362.794 401 363.889C397.606 368.603 398.45 374.127 399 379.629C400.498 383.905 403.555 386.739 407 389.815V391.667L386 390.741C390.825 395.209 390.825 395.209 395.656 399.671C397.193 401.101 398.714 402.545 400.219 404.004C413.845 417.074 429.585 427.12 448 433.333V476.852C445.711 478.091 443.419 479.325 441.125 480.556C440.474 480.909 439.823 481.262 439.152 481.626C434.227 484.259 434.227 484.259 432 484.259L431 487.037C428.806 488.218 426.668 489.231 424.375 490.22C422.909 490.875 421.444 491.532 419.98 492.191C419.182 492.549 418.383 492.908 417.56 493.277C412.894 495.405 408.294 497.649 403.688 499.884C402.207 500.601 402.207 500.601 400.696 501.333C393.958 504.598 387.229 507.879 380.505 511.168C375.739 513.494 370.958 515.793 366.168 518.077C364.961 518.654 363.753 519.23 362.546 519.807C360.203 520.925 357.859 522.039 355.513 523.151C349.626 525.961 343.896 528.899 338.245 532.097C335.042 533.861 331.733 535.37 328.375 536.863C317.053 542.018 306.135 547.78 295.375 553.877C294.399 554.421 294.399 554.421 293.402 554.976C287.928 558.129 283.131 561.253 280.695 566.931C279.876 570.983 279.31 575.008 278.875 579.109C278.745 580.257 278.745 580.257 278.613 581.429C278.403 583.298 278.201 585.167 278 587.037C268.879 579.383 263.056 569.43 257.563 559.375C257.079 558.497 257.079 558.497 256.585 557.602C242.033 531.189 226.118 499.44 233.875 468.963C239.435 453.604 251.558 443.423 266.641 436.006C270.85 434.198 275.23 432.919 279.639 431.594C288.703 428.847 297.588 425.65 306.5 422.511C308.447 421.828 310.394 421.145 312.342 420.462C322.988 416.725 333.624 412.961 344.254 409.183C345.332 408.8 346.41 408.417 347.52 408.023C352.755 406.163 357.988 404.3 363.219 402.432C365.116 401.756 367.013 401.08 368.91 400.405C369.775 400.095 370.639 399.785 371.53 399.466C372.327 399.183 373.124 398.899 373.946 398.607C374.636 398.361 375.326 398.114 376.038 397.86C378.006 397.22 379.969 396.734 382 396.296V388.889L379.438 388.773C374.198 387.538 370.705 384.722 367.668 380.599C366.719 379.071 365.851 377.502 365 375.926C365.482 375.434 365.964 374.942 366.461 374.436C367.093 373.782 367.724 373.127 368.375 372.454C369.002 371.809 369.628 371.164 370.273 370.5C372.676 367.743 373.879 365.673 374.375 362.153C373.901 358.498 372.443 356.565 370 353.704C364.059 350.953 356.011 352.774 350 354.629H347C345.501 353.176 345.501 353.176 343.926 351.139C343.344 350.397 342.762 349.654 342.163 348.889C341.552 348.091 340.942 347.292 340.313 346.47C339.688 345.668 339.064 344.866 338.421 344.039C337.177 342.44 335.937 340.838 334.7 339.234C333.263 337.376 331.809 335.532 330.336 333.698C325.836 328.085 323.479 324.823 324 317.592C324.824 315.309 325.852 313.282 327 311.111C335.918 311.699 344.8 312.465 353.688 313.368C354.898 313.489 356.108 313.611 357.355 313.736C366.905 314.697 376.454 315.673 386 316.666C386.014 316.17 386.028 315.673 386.043 315.162C387.874 287.301 407.381 257.289 427 237.037C428.143 235.81 428.143 235.81 429.309 234.559C446.422 216.397 481.223 189.814 509 189.814Z" fill="#535C61"/>
<path d="M619 446.297V448.149C620.172 448.239 621.344 448.33 622.551 448.424C634.951 449.478 644.943 451.999 656 457.408V459.26L657.688 459.433C660.981 460.505 662.595 462.485 665 464.815C666.163 465.669 667.329 466.518 668.5 467.362C672.574 470.553 674.691 474.311 677 478.704C677.383 479.413 677.766 480.122 678.16 480.853C679.107 482.606 680.053 484.359 681 486.112L682 487.038C685.253 500.912 685.557 514.077 684.188 528.183C684.118 528.939 684.048 529.695 683.976 530.474C683.393 535.747 681.963 540.406 680 545.371L678.938 548.496C678 550.927 678 550.927 676 553.704C675.505 555.232 675.015 556.761 674.566 558.301C673.937 560.397 673.232 562.459 672.5 564.526C672.144 565.534 672.144 565.534 671.781 566.562C670.994 568.534 670.053 570.362 669 572.223H667V575.927H665L664.125 577.952C663.083 580.363 662.042 582.775 661 585.186H659L658.188 587.168C656.95 589.926 655.534 592.512 654 595.14L652.438 597.845C651 600.001 651 600.001 649 600.927L648 603.704H646L645.813 605.267C644.652 608.324 642.544 609.842 640 612.038L637.375 614.468L635 616.667L633.313 618.346C632 619.445 632 619.445 630 619.445L629 622.223C624.543 625.927 624.543 625.927 622 625.927V627.778H620V629.63C618.029 630.941 616.053 632.141 614 633.334C612.392 634.292 610.788 635.257 609.188 636.227C608.418 636.688 607.648 637.149 606.855 637.624C604.872 638.776 604.872 638.776 604 640.741L610 641.667V642.593C608.515 642.729 608.515 642.729 607 642.868C605.667 643.007 604.333 643.147 603 643.288C601.051 643.481 601.051 643.481 599.063 643.678C595.365 644.227 592.576 645.477 589.3 647.104C567.422 657.04 542.678 660.429 518.747 662.687C516.556 662.908 514.372 663.189 512.191 663.492C505.697 664.256 499.1 664.072 492.563 664.063C491.47 664.063 491.47 664.063 490.355 664.062C464.306 664.021 438.475 661.537 413 656.482V678.704H412C411.62 637.141 411.62 637.141 412.875 623.612C412.953 622.754 413.032 621.895 413.113 621.011C413.536 617.104 414.117 613.762 416 610.186H418V608.334C433.116 601.785 449.468 598.435 465.625 594.85C466.864 594.575 468.102 594.3 469.378 594.017C478.997 591.886 478.997 591.886 482.969 591.02C491.699 589.103 499.434 587.246 507.164 582.885C510.665 581.153 514.23 580.112 518 578.994C531.387 574.929 546.584 567.93 555.125 557.292C555.788 556.488 556.45 555.683 557.133 554.854C561.925 547.15 562.435 539.464 562.563 530.73C562.798 522.469 563.192 514.589 565 506.482C565.307 504.93 565.307 504.93 565.621 503.346C568.812 488.172 574.811 472.212 587 461.112C587.686 460.43 587.686 460.43 588.387 459.734C592.047 456.438 595.066 455.945 599.949 455.867C602.571 455.47 603.343 454.662 605 452.778L607 450.001C609.313 448.919 609.313 448.919 612 447.975C613.33 447.497 613.33 447.497 614.688 447.009C617 446.297 617 446.297 619 446.297Z" fill="#7E7E7E"/>
<path d="M413 656.48C414.582 656.62 416.164 656.762 417.746 656.904C418.627 656.982 419.508 657.061 420.416 657.142C423.983 657.507 427.478 658.108 431 658.737C439.96 660.26 448.93 661.274 458 662.036C459.239 662.141 460.478 662.246 461.754 662.354C470.824 662.974 479.905 663.079 488.996 663.124C491.034 663.135 493.071 663.153 495.108 663.172C507.265 663.182 518.734 662.098 531 661.11V740.74H539C541.709 741.144 544.282 741.592 546.938 742.187C547.666 742.349 548.394 742.512 549.144 742.68C572.129 748.117 594.656 760.297 607.438 779.34C609.817 784.011 609.817 784.011 609 787.036C595.916 804.536 569.285 813.22 547.672 817.046C512.008 822.351 460.953 824.806 430 804.629C426.16 801.703 422.516 798.626 419 795.37L417 797.222C416.306 784.53 415.641 771.837 415 759.143C414.953 758.202 414.905 757.262 414.856 756.292C413.578 730.849 412.607 705.449 412.75 679.976C412.753 679.361 412.757 678.746 412.76 678.112C412.804 670.901 412.88 663.691 413 656.48Z" fill="#DFE0DF"/>
<path d="M450.195 476.064C451.089 476.454 451.089 476.454 452 476.852C452.942 477.25 452.942 477.25 453.902 477.655C454.574 477.963 455.246 478.271 455.938 478.588C466.12 482.832 477.309 483.877 488.312 484.896C489.542 485.016 490.771 485.136 492.037 485.26C495.024 485.55 498.012 485.834 501 486.111V487.963C500.138 488.278 499.275 488.593 498.387 488.918C490.235 491.915 482.135 495.009 474.06 498.181C469.758 499.866 465.446 501.512 461.097 503.091C452.894 506.07 444.938 509.435 437 512.963C435.308 513.711 433.616 514.459 431.924 515.207C429.381 516.332 426.84 517.46 424.299 518.59C423.039 519.15 421.779 519.709 420.518 520.267C411.876 524.097 403.393 528.128 395 532.408C394.316 532.756 393.633 533.104 392.929 533.462C380.745 539.725 368.308 546.157 357.602 554.463C356 555.556 356 555.556 354 555.556V557.408C352.627 558.461 351.2 559.455 349.75 560.417C343.762 564.63 340.36 569.014 339 575.926C338.678 579.979 338.669 584.016 338.688 588.079C338.69 589.25 338.692 590.42 338.694 591.627C338.823 603.28 340.056 614.765 341.611 626.329C341.739 627.418 341.868 628.508 342 629.63C342.15 630.832 342.15 630.832 342.302 632.058C343.071 639.061 342.802 645.681 342.074 652.676C341.967 653.794 341.86 654.911 341.75 656.062C341.463 659.056 341.167 662.049 340.87 665.043C340.314 670.689 339.795 676.339 339.273 681.988C339.216 682.609 339.158 683.231 339.099 683.871C338.106 694.641 337.335 705.406 336.812 716.203C336.777 716.933 336.742 717.662 336.705 718.413C336.568 721.278 336.433 724.144 336.302 727.01C335.966 734.308 335.521 741.6 335.07 748.893C334.284 761.604 333.575 774.316 333 787.037L328 788.889L328.141 790.654C328.36 795.47 328.271 799.685 325.637 803.938C322.026 807.505 316.898 808.705 312 810.185C310.984 810.517 309.968 810.848 308.922 811.19C296.276 815.103 283.793 816.902 270.5 817.013C269.593 817.026 268.685 817.039 267.75 817.052C260.689 817.007 254.269 815.979 248.375 812.21C247 810.185 247 810.185 246.688 807.523C250.069 800.068 261.196 797.205 268.811 794.307C270.228 793.774 271.645 793.241 273.062 792.708C274.515 792.154 275.968 791.6 277.42 791.044C280.943 789.699 284.47 788.365 288 787.037C287.884 786.188 287.768 785.339 287.648 784.465C285.706 769.629 284.67 754.719 283.562 739.815C283.508 739.089 283.454 738.363 283.399 737.615C280.221 694.828 277.743 652.116 277.69 609.217C277.688 607.084 277.682 604.95 277.676 602.816C277.669 599.466 277.675 596.117 277.692 592.767C277.699 590.964 277.698 589.161 277.697 587.359C277.87 567.056 277.87 567.056 284.722 560.352C289.575 556.47 294.589 553.277 300.125 550.289C300.98 549.821 301.834 549.353 302.715 548.871C311.822 543.924 321.095 539.255 330.398 534.633C333.079 533.294 335.746 531.932 338.414 530.57C344.136 527.676 349.963 525.002 355.812 522.338C363.621 518.756 371.243 515.04 378.762 510.963C382.848 508.813 387.035 506.883 391.25 504.963C398.97 501.436 406.591 497.735 414.22 494.044C415.751 493.304 415.751 493.304 417.312 492.549C418.287 492.077 419.262 491.605 420.266 491.119C422.681 489.967 425.114 488.865 427.562 487.775C430.509 486.349 431.784 485.429 434 483.334C436.294 481.961 438.576 480.662 440.938 479.398C441.558 479.05 442.179 478.701 442.818 478.342C447.393 475.888 447.393 475.888 450.195 476.064Z" fill="#273339"/>
<path d="M561.309 96.101C563.672 97.6679 565.484 99.5928 567.438 101.573C569.305 103.013 570.624 103.267 573 103.646C577.304 104.402 579.187 106.23 581.836 109.371C583 111.111 583 111.111 584 114.178L585 116.667C587.804 117.712 587.804 117.712 591 118.519C598.296 122.792 601.083 129.637 603.117 137.196C604.221 142.079 604.384 146.875 604.375 151.852C604.374 153.244 604.374 153.244 604.372 154.664C604.18 166.017 601.177 176.4 597 187.037C598.524 187.374 598.524 187.374 600.078 187.717C608.533 189.613 616.795 191.739 625 194.444V198.148L630 200V201.852H632C634.547 204.132 636.732 206.742 639 209.259C639.754 210.073 640.508 210.887 641.285 211.726C645.411 216.254 649.042 220.653 651.93 225.951C652.977 227.856 652.977 227.856 654.59 229.677C656.44 232.045 656.648 234.17 657 237.037H659C667.37 256.238 672.37 273.787 672.261 294.622C672.25 297.035 672.261 299.448 672.273 301.861C672.295 325.577 668.665 351.767 657 373.148C655.889 375.364 654.785 377.582 653.688 379.803C652.792 381.597 651.896 383.391 651 385.185H649C648.745 385.856 648.49 386.527 648.227 387.218C644.69 394.705 636.673 403.38 628.378 406.561C627.593 406.84 626.808 407.12 626 407.407C626.688 391.733 627.999 376.109 629.328 360.473C629.672 356.424 630.012 352.375 630.352 348.326C630.617 345.175 630.883 342.024 631.15 338.873C631.723 332.097 632.261 325.321 632.748 318.539C633.036 315.336 633.555 312.213 634.156 309.05C635.836 300.105 636.353 291.249 636.438 282.176C636.46 281.041 636.482 279.907 636.504 278.738C636.485 270.806 635.194 264.964 629.938 258.623C625.595 255.457 620.963 253.156 616 250.926C615.224 250.57 614.448 250.214 613.648 249.848C606.139 246.881 598.213 246.29 590.147 245.65C583.792 245.049 580.383 244.21 576 239.815C574.574 237.938 574.574 237.938 573.688 236.169C573.229 235.297 573.229 235.297 572.762 234.407C570.414 228.243 570.208 221.258 571 214.815C573.063 212.211 573.063 212.211 576 210.185C578.931 207.972 581.215 205.888 583 202.778C583.434 198.335 582.799 194.198 582 189.815C581.733 188.28 581.733 188.28 581.461 186.715C581.018 184.342 580.535 181.986 580 179.63L581.938 178.819C584.152 177.937 584.152 177.937 585 175.926C585.25 173.148 585.25 173.148 585 170.37C583.123 168.267 583.123 168.267 580.125 168.113C576.793 168.239 576.793 168.239 574.625 170.833L573 173.148L570 172.222C570.021 171.69 570.042 171.158 570.064 170.61C570.147 168.177 570.199 165.744 570.25 163.31C570.284 162.473 570.317 161.637 570.352 160.775C570.438 155.322 569.919 152.301 566 148.148C563.283 146.89 561.092 147.1 558.063 147.106C557.002 147.104 555.941 147.102 554.848 147.099C551.924 147.106 551.924 147.106 549 148.148C546.177 148.238 543.385 148.277 540.563 148.264C539.799 148.267 539.035 148.271 538.248 148.275C537.508 148.274 536.767 148.272 536.004 148.271C535.332 148.27 534.66 148.269 533.967 148.268C531.874 148.14 530.023 147.724 528 147.222C523.125 146.708 519.31 146.514 515 148.843C512.053 153.276 511.591 157.845 511 162.963H519L520 164.815L516.563 165.625L513 166.667L512 168.518H509V188.889C506.664 186.005 505.534 184.492 504.316 181.293C504.03 180.546 503.744 179.798 503.45 179.028C503.157 178.234 502.864 177.439 502.563 176.62C502.257 175.795 501.951 174.97 501.636 174.12C497.615 163.074 494.646 152.447 494.176 140.752C494.128 137.917 494.128 137.917 493 135.185C492.039 125.989 492.571 118.58 499 111.111C504.046 106.514 510.271 102.966 517.438 102.604L520 102.778L520.125 100.289C521.294 96.1935 523.284 94.9536 527 92.5926C537.149 89.486 552.093 91.3624 561.309 96.101ZM301 425V426.852H299C300.278 429.219 301.6 430.049 304 431.481C306.6 432.27 306.6 432.27 309.375 432.812C313.96 433.891 317.2 435.282 321 437.963L323.5 439.236C326.857 441.256 329.294 443.558 332 446.296V448.148H334V450.926L335.813 451.562C340.513 454.174 341.821 459.242 343.5 463.831C344.677 467.042 345.798 470.028 347.555 473.007C349.465 476.865 350.041 480.535 350.625 484.722C350.75 485.582 350.875 486.442 351.003 487.328C352.614 499.509 352.757 511.817 353 524.074C344.78 528.671 336.571 533.191 327.938 537.095C316.755 542.162 305.992 547.861 295.375 553.877C294.724 554.24 294.073 554.603 293.402 554.976C287.928 558.129 283.131 561.252 280.695 566.93C279.876 570.982 279.31 575.008 278.875 579.109C278.789 579.874 278.702 580.64 278.613 581.429C278.403 583.298 278.201 585.167 278 587.037C268.879 579.383 263.056 569.429 257.563 559.375C257.079 558.497 257.079 558.497 256.585 557.602C242.033 531.189 226.118 499.44 233.875 468.963C239.152 454.385 250.622 443.74 265.166 436.753C270.726 434.223 276.413 432.405 282.332 430.707C287.147 429.292 291.797 427.586 296.488 425.85C299 425 299 425 301 425Z" fill="#7E7E7E"/>
<path d="M509 189.814C509.28 190.498 509.559 191.182 509.848 191.887C516.043 206.414 516.043 206.414 528.086 216.713C530.36 217.788 532.161 218.725 534 220.37C535.999 226.675 533.195 232.45 530 237.962L529 239.814C526.252 240.631 523.54 241.346 520.75 242.013C519.097 242.426 517.445 242.84 515.793 243.254C514.976 243.457 514.159 243.66 513.318 243.868C493.935 248.681 481.509 255.267 471 271.296C462.957 284.476 457.332 298.328 455.116 313.328C454.083 320.054 452.785 326.713 451.398 333.383C451.157 334.557 450.916 335.731 450.667 336.94C450.035 340.012 449.4 343.083 448.763 346.155C448.111 349.308 447.462 352.462 446.812 355.616C445.545 361.769 444.274 367.921 443 374.073C439.063 372.858 438.173 371.114 435.812 367.997C435.097 367.06 434.382 366.123 433.645 365.158C433.102 364.433 432.559 363.709 432 362.962L429.688 363.425C427 363.888 427 363.888 424 363.888C422.469 362.391 422.469 362.391 420.855 360.3C420.261 359.54 419.666 358.78 419.053 357.996C418.12 356.775 418.12 356.775 417.188 355.555C415.973 353.992 414.758 352.43 413.543 350.867C412.946 350.095 412.35 349.323 411.735 348.527C409.208 345.278 406.609 342.081 404 338.888C401.957 336.381 399.916 333.873 397.875 331.365C397.363 330.738 396.851 330.112 396.324 329.466C394.044 326.66 391.84 323.872 389.836 320.891C388.181 318.222 388.181 318.222 384.75 317.708L382 317.592L386 316.666C386.014 316.169 386.028 315.673 386.043 315.161C387.874 287.301 407.381 257.289 427 237.037C427.762 236.219 428.524 235.401 429.309 234.559C446.422 216.397 481.223 189.814 509 189.814Z" fill="#7E7E7E"/>
<path d="M682 225C687.63 227.085 687.63 227.085 690.453 229.542C691.068 230.073 691.682 230.604 692.315 231.151C692.954 231.719 693.592 232.286 694.25 232.87C694.917 233.457 695.584 234.045 696.271 234.65C719.979 255.712 735.997 282.732 744.466 312.047C744.979 313.815 745.514 315.577 746.051 317.339C747.089 320.807 748.069 324.284 749 327.777C749.253 328.724 749.253 328.724 749.512 329.69C755.349 352.011 756.45 374.516 756.188 397.395C756.172 399.735 756.159 402.074 756.146 404.414C756.114 410.041 756.064 415.669 756 421.296C755.292 420.721 755.292 420.721 754.57 420.135C753.947 419.634 753.323 419.132 752.681 418.615C752.065 418.118 751.449 417.62 750.814 417.107C743.182 411.355 732.766 409.959 723.199 410.394C713.523 411.361 704.279 415.28 695.35 418.679C693 419.444 693 419.444 690 419.444V421.296C686.634 423.054 683.587 424.23 679.812 424.884C675.115 425.76 671.098 427.452 666.781 429.343C664.066 430.526 661.336 431.635 658.562 432.696C657.78 432.998 656.998 433.3 656.191 433.611C654 434.259 654 434.259 650 434.259C651.62 430.012 654.019 426.379 656.562 422.569C659.693 417.957 659.693 417.957 662 412.962H664L664.75 410.648C666.187 406.922 668.024 403.5 670 400H672L672.312 397.685C673.116 393.895 674.464 390.624 676 387.037H678C678.086 386.54 678.173 386.044 678.262 385.532C679.49 379.186 681.503 373.162 683.684 367.053C686.808 357.753 688.591 348.225 690.062 338.599C690.223 337.585 690.383 336.571 690.549 335.527C691.049 332.328 691.524 329.127 692 325.925C692.183 324.785 692.366 323.644 692.555 322.468C694.041 312.642 694.354 302.969 694.312 293.055C694.312 292.248 694.312 291.44 694.311 290.608C694.288 278.284 693.498 266.36 691.364 254.178C690.715 250.026 690.361 245.847 690 241.666H688L682 225Z" fill="#7E7E7E"/>
<path d="M413 656.48C414.582 656.62 416.164 656.762 417.746 656.904C418.627 656.982 419.508 657.061 420.416 657.142C423.983 657.507 427.478 658.109 431 658.737C451.899 662.24 472.684 662.791 494 663.888V740.74L475 743.517C452.36 749.282 430.325 760.472 418 779.628H417C412.489 738.705 412.707 697.562 413 656.48Z" fill="#FEFEFE"/>
<path d="M385 389.816C388.731 389.837 392.458 389.909 396.188 389.989C397.77 389.997 397.77 389.997 399.385 390.006C407.29 390.213 407.29 390.213 410.977 392.955C411.644 393.753 412.312 394.55 413 395.371C421.465 400.737 430.794 404.021 441 404.631V408.334C442.926 410.056 442.926 410.056 445.5 411.517C446.414 412.075 447.328 412.632 448.27 413.206C449.171 413.737 450.072 414.269 451 414.816C451.726 415.261 452.451 415.706 453.199 416.165C456.706 418.276 460.137 419.973 464.035 421.413C466.537 422.445 468.868 423.692 471.25 424.943C476.642 427.72 482.148 429.701 488 431.482V433.334C489.097 433.569 490.194 433.805 491.324 434.047C492.779 434.368 494.233 434.69 495.688 435.013C496.409 435.166 497.13 435.319 497.873 435.477C502.113 436.427 505.279 437.651 509 439.816C511.083 440.51 513.19 441.144 515.312 441.726C516.915 442.171 516.915 442.171 518.551 442.626C521.634 443.425 524.728 444.149 527.837 444.857C530.156 445.408 532.451 446.017 534.75 446.637C553.865 451.756 573.23 454.592 593 456.482C590.99 458.853 589.056 461.063 586.688 463.138C582.635 467.064 578.301 471.74 576.247 476.889C575.362 479.008 574.544 480.637 573 482.408C569.743 483.713 566.515 483.948 563 484.202C562.117 484.294 561.234 484.385 560.324 484.479C557.552 484.756 554.779 484.971 552 485.186C551.166 485.271 550.333 485.355 549.474 485.443C539.487 486.39 529.452 486.318 519.423 486.335C516.233 486.343 513.043 486.372 509.854 486.401C470.937 486.586 470.937 486.586 456 479.631C455.243 479.3 454.485 478.969 453.705 478.628C447.46 475.468 447.46 475.468 446.261 471.84C446.071 469.108 446.167 466.505 446.375 463.774C446.413 462.803 446.451 461.832 446.49 460.832C446.617 457.835 446.806 454.846 447 451.853C447.09 449.994 447.176 448.135 447.258 446.276C447.457 441.958 447.711 437.647 448 433.334C447.12 433.226 446.239 433.117 445.332 433.005C429.281 430.13 414.165 417.237 402.734 407.054C400.586 405.15 398.424 403.364 396.125 401.621C391.918 398.35 387.474 394.397 385 389.816Z" fill="#32A05F"/>
<path d="M561.309 96.101C563.672 97.6679 565.484 99.5928 567.437 101.573C569.304 103.012 570.624 103.267 573 103.646C577.304 104.402 579.187 106.23 581.836 109.371C583 111.111 583 111.111 584 114.178L585 116.667C587.804 117.712 587.804 117.712 591 118.518C598.296 122.792 601.083 129.637 603.117 137.196C604.221 142.079 604.384 146.875 604.375 151.852C604.374 153.244 604.374 153.244 604.372 154.664C604.18 166.017 601.177 176.4 597 187.037L599 187.963H595L594.75 189.467C592.79 195.213 588.981 198.008 584 201.852L580 179.629L584 177.778C585.381 175.22 585.191 173.197 585 170.37C583.123 168.267 583.123 168.267 580.125 168.113C576.793 168.239 576.793 168.239 574.625 170.833L573 173.148L570 172.222C570.021 171.69 570.042 171.158 570.063 170.61C570.147 168.177 570.199 165.744 570.25 163.31C570.283 162.473 570.317 161.637 570.352 160.775C570.438 155.322 569.919 152.301 566 148.148C563.283 146.89 561.092 147.1 558.062 147.106C557.002 147.104 555.941 147.102 554.848 147.099C551.924 147.106 551.924 147.106 549 148.148C546.177 148.238 543.385 148.277 540.562 148.264C539.799 148.267 539.035 148.271 538.248 148.275C537.507 148.273 536.767 148.272 536.004 148.271C535.332 148.27 534.66 148.269 533.967 148.268C531.874 148.14 530.022 147.724 528 147.222C523.125 146.708 519.31 146.514 515 148.842C512.053 153.276 511.591 157.845 511 162.963H519L520 164.815L516.562 165.625L513 166.667L512 168.518H509V188.889C506.664 186.005 505.534 184.492 504.316 181.293C504.03 180.546 503.744 179.798 503.45 179.028C503.157 178.233 502.864 177.439 502.562 176.62C502.257 175.795 501.951 174.97 501.636 174.12C497.615 163.074 494.646 152.447 494.176 140.751C494.128 137.917 494.128 137.917 493 135.185C492.038 125.989 492.571 118.58 499 111.111C504.046 106.514 510.271 102.966 517.437 102.604L520 102.778L520.125 100.289C521.293 96.1935 523.284 94.9536 527 92.5926C537.149 89.486 552.093 91.3624 561.309 96.101Z" fill="#A7716A"/>
<path d="M522.875 146.18C523.739 146.178 524.602 146.175 525.492 146.173C528 146.296 528 146.296 529.906 146.759C532.018 147.226 533.837 147.342 536.004 147.345C536.744 147.346 537.485 147.347 538.248 147.349C539.012 147.345 539.776 147.341 540.562 147.338C541.33 147.341 542.098 147.345 542.889 147.349C546.179 147.343 548.858 147.266 552 146.296C562.388 145.46 562.388 145.46 567.125 147.916C570.156 151.284 571.256 153.723 571.195 158.116C571.189 158.94 571.182 159.763 571.176 160.612C571.159 161.464 571.142 162.316 571.125 163.194C571.116 164.061 571.107 164.927 571.098 165.82C571.074 167.954 571.041 170.088 571 172.222L573 173.148L573.875 171.412C575 169.444 575 169.444 577 167.592C580.103 167.287 582.158 167.124 584.875 168.634C586.536 171.197 586.388 172.991 586 175.926C584.687 178.125 584.687 178.125 583 179.629H580C580.205 180.214 580.41 180.799 580.621 181.402C586.249 198.705 586.249 198.705 582.402 205.671C576.102 213.243 567.433 218.842 557.273 220.931C553.047 221.402 548.879 221.539 544.625 221.585C543.407 221.626 543.407 221.626 542.164 221.667C534.036 221.745 527.913 219.059 522 213.889C509.153 199.405 507.324 186.795 509 168.518H512L512.687 166.724C514 164.815 514 164.815 516.625 164.12L519 163.889L516.125 163.946C513 163.889 513 163.889 511 162.963C511.349 152.844 511.349 152.844 513.937 148.9C517.053 146.365 518.809 146.169 522.875 146.18Z" fill="#EFAC8F"/>
<path d="M327 311.112C338.349 311.869 349.649 312.884 360.949 314.114C365.236 314.575 369.456 314.896 373.769 314.996C385.44 315.493 385.44 315.493 390.085 319.305C394.124 323.509 397.329 328.12 400.458 332.927C402.509 335.932 404.85 338.67 407.239 341.448C410.181 344.909 412.923 348.501 415.687 352.084C416.794 353.517 417.902 354.949 419.012 356.381C419.526 357.044 420.04 357.708 420.569 358.391C421.761 359.886 423.026 361.329 424.309 362.757C426.015 364.834 426.693 366.305 427.375 368.809C428.893 373.489 431.632 376.852 435 380.556C424.946 379.171 416.92 372.776 410.097 366.176C408.555 364.69 408.555 364.69 406 362.964C403.278 362.795 403.278 362.795 401 363.89C397.606 368.603 398.45 374.128 399 379.63C400.498 383.906 403.555 386.739 407 389.815V391.667C401.994 391.421 396.997 391.108 392 390.741C390.735 390.649 389.471 390.558 388.168 390.463C379.471 389.599 373.995 387.87 368.41 381.529C367.21 380.012 366.095 378.437 365 376.852C365.398 376.449 365.797 376.046 366.207 375.63C370.22 371.453 373.54 367.736 374.437 362.038C373.878 358.487 372.384 356.496 370 353.704C364.059 350.954 356.011 352.775 350 354.63H347C345.501 353.177 345.501 353.177 343.926 351.14C343.344 350.398 342.762 349.655 342.163 348.89C341.552 348.092 340.942 347.293 340.312 346.471C339.688 345.669 339.064 344.866 338.421 344.04C337.177 342.441 335.937 340.839 334.7 339.235C333.262 337.377 331.809 335.533 330.336 333.699C325.836 328.086 323.479 324.824 324 317.593C324.824 315.31 325.851 313.283 327 311.112Z" fill="#1B160E"/>
<path d="M294.367 788.357C300.935 790.319 307.285 790.121 314.125 789.988C315.368 789.976 316.61 789.963 317.891 789.95C320.928 789.918 323.964 789.872 327 789.815C327.032 791.6 327.055 793.386 327.074 795.171C327.095 796.663 327.095 796.663 327.116 798.184C327 800.926 327 800.926 325.812 804.109C317.679 810.971 304.533 812.649 294 814.815C292.559 815.132 292.559 815.132 291.09 815.455C284.367 816.736 277.654 816.883 270.812 816.956C269.886 816.972 268.959 816.989 268.003 817.006C260.822 816.999 254.376 816.047 248.375 812.211C247 810.185 247 810.185 246.688 807.523C249.767 800.735 259.022 798.072 265.98 795.406C267.268 794.921 268.558 794.438 269.849 793.959C271.83 793.222 273.805 792.474 275.779 791.723C289.37 786.588 289.37 786.588 294.367 788.357Z" fill="#181B22"/>
<path d="M379 798.147L382 799.073C383.752 799.16 385.507 799.194 387.262 799.196C388.299 799.198 389.336 799.199 390.404 799.2C392.029 799.195 392.029 799.195 393.688 799.189C394.752 799.193 395.816 799.196 396.912 799.2C402.704 799.193 408.273 798.955 414 798.147C415.695 802.857 415.924 806.572 413.598 811.006C410.477 815.055 405.748 817.11 401.125 819.444C400.181 819.929 399.237 820.414 398.265 820.914C381.885 829.224 363.176 837.012 344 834.259C341.043 832.378 341.043 832.378 339 830.555C339.134 825.475 341.213 823.543 344.943 820.217C348.302 817.442 351.887 815.017 355.562 812.615C356.342 812.101 357.122 811.587 357.926 811.058C362.884 807.812 367.873 804.607 372.938 801.504C373.51 801.145 374.082 800.787 374.672 800.418C376.277 799.457 376.277 799.457 379 798.147Z" fill="#171A21"/>
<path d="M402 362.038C406.715 362.466 408.655 364.12 411.938 367.188C418.001 372.519 424.624 376.061 432 379.63L433 378.704C432.578 378.255 432.157 377.807 431.723 377.344C427.732 372.823 426 369.779 426 363.889L428 362.038C430.406 362.095 430.406 362.095 433 362.964C434.781 364.989 434.781 364.989 436.5 367.593C440.609 373.199 445.135 376.146 451.242 379.656C453.905 381.419 454.929 382.379 456 385.186H458C457.494 387.194 457 388.889 456 390.741H454L453.25 392.767C450.937 397.585 447.469 400.546 443 403.704L441 405.556C428.807 405.248 417.107 399.875 408 392.593C401.656 386.267 397.878 382.041 397.688 373.264C397.65 372.14 397.613 371.016 397.574 369.857C398.068 366.159 399.246 364.684 402 362.038Z" fill="#EEAC8F"/>
<path d="M385 389.816C388.731 389.837 392.458 389.909 396.188 389.989C397.77 389.997 397.77 389.997 399.385 390.006C407.29 390.213 407.29 390.213 410.977 392.955C411.644 393.753 412.312 394.55 413 395.371C421.465 400.737 430.794 404.021 441 404.631V408.334C443.004 409.804 443.004 409.804 445.5 411.112C449.8 414.058 449.8 414.058 450.633 417.217C450.624 420.163 450.354 422.999 450 425.927C449.906 427.195 449.821 428.463 449.742 429.732C449.534 433.096 449.278 436.456 449 439.816H448V433.334C447.12 433.226 446.239 433.117 445.332 433.005C429.281 430.13 414.165 417.237 402.734 407.054C400.586 405.15 398.424 403.364 396.125 401.621C391.918 398.35 387.474 394.397 385 389.816Z" fill="#4BA551"/>
<path d="M490 250.926V253.704H488C487.577 254.504 487.577 254.504 487.145 255.321C486.054 257.31 484.886 259.235 483.687 261.169C475.694 274.539 471.289 288.737 467.522 303.539C466.988 305.603 466.421 307.659 465.852 309.716C462.758 321.223 460.715 332.844 458.812 344.561C458.686 345.333 458.56 346.105 458.429 346.9C456.559 358.397 455.152 369.905 454 381.482C445.25 377.084 445.25 377.084 443 375.001C442.809 367.907 444.72 360.667 446.215 353.744C446.431 352.72 446.646 351.697 446.869 350.642C447.553 347.399 448.245 344.157 448.937 340.915C449.847 336.647 450.752 332.377 451.652 328.107C451.867 327.091 452.081 326.075 452.302 325.027C453.602 318.797 454.743 312.588 455.563 306.286C458.687 287.811 470.184 264.569 486.562 253.068C487.698 252.34 488.84 251.62 490 250.926Z" fill="#4BA551"/>
<path d="M534 225C544.994 225.694 553.514 230.364 561.459 237.108C566.558 241.417 571.132 243.687 578 244.444C568.036 252.219 552.743 253.819 540.187 253.935C539.47 253.943 538.752 253.952 538.012 253.961C533.635 253.936 530.068 253.341 526 251.851C525.14 247.711 524.655 245.33 527 241.666L526 239.814H529C530.495 236.523 531.637 233.253 532.625 229.803C532.885 228.899 533.146 227.996 533.414 227.065C533.607 226.383 533.801 225.702 534 225Z" fill="#EFAC8F"/>
<path d="M387 317.592C390.835 320.954 393.88 324.455 396.875 328.472C399.611 332.082 402.345 335.667 405.312 339.12C409.523 344.044 413.436 349.169 417.382 354.276C419.624 357.171 421.848 360.016 424.309 362.756C426.015 364.833 426.693 366.304 427.375 368.807C428.893 373.488 431.632 376.851 435 380.555C424.942 379.169 416.976 372.714 409.922 366.338C407.597 364.243 406.128 363.002 403 362.037V360.185L405 359.259L404 355.555L401 356.481L399.625 353.53C397.182 348.932 393.811 345.075 390.354 341.105C387 337.218 387 337.218 387 335.185H385C382.922 331.336 383.345 326.071 384.672 322.023C385.377 320.516 386.179 319.048 387 317.592Z" fill="#302821"/>
<path d="M571 215.74C571.086 216.847 571.173 217.953 571.262 219.093C572.007 227.307 572.749 233.852 578 240.741C578.687 241.965 579.36 243.198 580 244.444C571.5 245.147 567.543 242.476 561.062 237.608C552.71 231.351 544.615 227.286 534 225V220.37C534.564 220.38 535.128 220.39 535.709 220.4C538.306 220.438 540.903 220.462 543.5 220.486C544.387 220.501 545.274 220.517 546.188 220.533C553.203 220.581 559.449 219.832 565.875 217.014C569 215.74 569 215.74 571 215.74Z" fill="#D37153"/>
<path d="M371.063 353.472C373.712 356.321 374.798 358.083 375.438 361.805C374.69 366.944 371.424 370.52 368.063 374.537C366 375.926 366 375.926 363.188 376.562C357.324 375.391 354.303 370.904 350.625 366.782C348.551 363.089 347.628 359.73 348 355.555C352.684 350.218 365.099 350.316 371.063 353.472Z" fill="#EDAB8F"/>
<path d="M548 109.259C545.831 109.905 544.42 110.284 542.183 109.757C537.796 108.756 533.182 109.088 528.688 109.085C527.157 109.068 527.157 109.068 525.596 109.051C517.598 109.037 511.388 110.166 504.312 113.773C503.401 114.229 502.49 114.685 501.551 115.155C498.99 116.673 497.058 118.308 495 120.37C495.54 116.117 497.081 113.496 500 110.185C515.589 98.8264 531.09 102.318 548 109.259Z" fill="#8A5E57"/>
<path d="M533.832 133.247C534.547 133.581 535.263 133.915 536 134.259V135.185H512V137.037C511.203 137.374 511.203 137.374 510.391 137.717C503.565 140.716 500.189 143.504 497 150H495V137.037L500 135.185L503 133.333C512.979 127.174 523.404 128.75 533.832 133.247Z" fill="#885C55"/>
<path d="M338 685.186H339C341.156 696.631 341.223 707.853 341 719.445L343 718.519V725L339 724.074V725.926H336C336.12 721.91 336.244 717.894 336.372 713.877C336.415 712.516 336.457 711.155 336.497 709.794C336.743 701.567 337.135 693.381 338 685.186Z" fill="#F0EEEB"/>
<path d="M344 641.667C345.429 648.743 346.304 654.912 345 662.037H344L343 656.482V688.889H341L340 691.667C338.51 680.976 339.18 670.68 340.227 659.976C340.44 657.789 340.643 655.601 340.846 653.413C340.979 652.023 341.112 650.634 341.246 649.244C341.307 648.59 341.367 647.935 341.429 647.26C341.988 641.667 341.988 641.667 344 641.667Z" fill="#F4F1EF"/>
<path d="M526 198.148H549C546.759 202.298 545.731 204.095 541 205.555C537.936 205.927 535.057 206.007 532 205.555C528.718 203.213 527.308 201.78 526 198.148Z" fill="#F2EFEE"/>
<path d="M544 92.5928C550.649 92.1368 556.25 92.9917 562 96.2965C564.028 98.5542 564.319 99.7843 565 102.778C564.188 105.498 564.188 105.498 563 107.408H561L560 105.556L558 106.482C558 102.778 558 102.778 559 101.852C556.771 99.4023 556.771 99.4023 554 97.2224L552.062 97.6854L550 98.1484C547.7 96.8127 545.983 95.2712 544 93.5187V92.5928Z" fill="#A9736C"/>
<path d="M284 742.591H285C285.086 743.674 285.171 744.757 285.26 745.873C285.58 749.918 285.903 753.963 286.227 758.008C286.366 759.754 286.505 761.499 286.643 763.245C286.842 765.764 287.044 768.284 287.246 770.803C287.307 771.575 287.367 772.347 287.429 773.142C287.806 777.797 288.335 782.408 289 787.035L284 788.887V742.591Z" fill="#ECE6E2"/>
<path d="M494 118.519C493.988 119.69 493.977 120.861 493.965 122.067C493.955 123.604 493.946 125.141 493.937 126.679C493.925 127.836 493.925 127.836 493.912 129.017C493.909 129.76 493.906 130.503 493.902 131.269C493.897 131.952 493.892 132.636 493.886 133.34C493.925 135.381 493.925 135.381 495 137.963C495.069 139.718 495.085 141.474 495.062 143.23C495.053 144.15 495.044 145.07 495.035 146.018C495.024 146.721 495.012 147.424 495 148.149H494V140.741H491C488.847 137.169 487.607 134.675 488 130.556L489 134.26H491C490.988 133.201 490.977 132.142 490.965 131.051C490.955 129.671 490.946 128.291 490.937 126.91C490.929 126.211 490.921 125.512 490.912 124.792C490.903 123.01 490.948 121.227 491 119.445C492 118.519 492 118.519 494 118.519Z" fill="#FBFCFA"/>
<path d="M278 642.594H279L280 675.927L276 674.075C276.574 663.575 277.204 653.082 278 642.594Z" fill="#EBE8E5"/>
<path d="M562 98.1484C564.913 99.3575 566.803 100.655 569 102.778L572 104.63C573.667 109.961 573.087 115.792 573 121.297C571.445 118.597 570.37 115.954 569.438 113.021C569.064 111.863 569.064 111.863 568.684 110.681C568.01 108.368 567.478 106.058 567 103.704H565L562 98.1484Z" fill="#8B5C56"/>
<path d="M553 162.963C559.75 163.657 559.75 163.657 562 165.741V169.444H560L559 174.074L554 175V171.296L556 170.37L555 166.667H559L553 164.815V162.963Z" fill="#ECAB90"/>
<path d="M362 311.112H369V312.964L376 313.89V314.816C380.141 315.01 380.141 315.01 384 313.89L386 311.112V316.668C378.647 316.854 372.051 316.864 365 314.816V312.964H362V311.112Z" fill="#EEEDEE"/>
<path d="M344 641.667C345.429 648.743 346.304 654.912 345 662.037H344L343 656.482L341 659.26C341.14 656.501 341.287 653.742 341.438 650.984C341.477 650.197 341.516 649.41 341.557 648.599C341.599 647.85 341.64 647.101 341.684 646.329C341.72 645.636 341.757 644.942 341.795 644.228C342.116 641.667 342.116 641.667 344 641.667Z" fill="#E4DAD5"/>
<path d="M372 832.406C371 834.258 371 834.258 368 835.184L367 837.036C360.848 837.126 360.848 837.126 359 837.036L358 836.11C356.151 835.894 354.295 835.728 352.438 835.589C351.426 835.512 350.414 835.434 349.371 835.354C348.197 835.27 348.197 835.27 347 835.184V834.258C347.565 834.207 348.13 834.156 348.712 834.103C351.267 833.869 353.821 833.63 356.375 833.39C357.264 833.31 358.154 833.229 359.07 833.146C359.921 833.065 360.772 832.985 361.648 832.902C362.434 832.829 363.219 832.756 364.029 832.681C369.994 831.849 369.994 831.849 372 832.406Z" fill="#F3F3F3"/>
<path d="M744 312.037H746L747 317.592H749V319.444H751C751.054 320.91 751.093 322.376 751.125 323.842C751.148 324.659 751.171 325.475 751.195 326.316C750.991 328.808 750.366 330.276 749 332.407C748.351 330.054 747.706 327.701 747.062 325.347C746.88 324.687 746.698 324.027 746.51 323.347C745.487 319.592 744.62 315.87 744 312.037Z" fill="#EAEAEF"/>
<path d="M413 688.888H414C414.34 691.202 414.672 693.517 415 695.832C415.095 696.477 415.191 697.121 415.289 697.785C415.916 702.265 416.088 706.593 416 711.11H414L413 713.888V688.888Z" fill="#EFE9E5"/>
<path d="M581 110.185C583.988 112.701 585.792 115.006 586.266 118.786L586.25 120.949L586.266 123.127C586 125 586 125 584 126.852C583.495 124.77 582.996 122.686 582.5 120.602L581.656 117.086C581 113.889 581 113.889 581 110.185Z" fill="#8A5F59"/>
<path d="M406 815.741C406 818.519 406 818.519 404.125 820.544C402 822.223 402 822.223 400 822.223L399 825C397.062 824.653 397.062 824.653 395 824.075L394 822.223L406 815.741Z" fill="#EDEEEE"/>
<path d="M320 808.334L317 809.26L316 812.038L303 813.89V812.038C305.455 811.238 307.914 810.449 310.375 809.665C311.423 809.322 311.423 809.322 312.492 808.972C317.773 807.303 317.773 807.303 320 808.334Z" fill="#ECEDEE"/>
<path d="M398 379.629L399.125 381.076C401.228 383.607 403.49 385.97 405.793 388.346C407 389.814 407 389.814 407 391.666H401L401.25 389.525C401.292 386.901 401.292 386.901 399 385.358L397 384.259L398 379.629Z" fill="#322816"/>
<path d="M492 124.074H493C493.061 124.844 493.121 125.614 493.184 126.407C493.267 127.413 493.351 128.419 493.438 129.456C493.559 130.955 493.559 130.955 493.684 132.483C493.902 135.241 493.902 135.241 495 137.963C495.069 139.717 495.085 141.474 495.062 143.229C495.053 144.15 495.044 145.07 495.035 146.018C495.024 146.721 495.012 147.424 495 148.148H494V140.741L491 139.815L492 137.037C492.07 134.82 492.084 132.6 492.062 130.382C492.053 129.204 492.044 128.026 492.035 126.812C492.024 125.909 492.012 125.005 492 124.074Z" fill="#E3D3CE"/>
<path d="M360 311.112V312.964L364 314.815L348 313.89C349 312.038 349 312.038 350.625 311.459C353.766 311 356.826 311.055 360 311.112Z" fill="#DEDDDB"/>
<path d="M563 518.521H564V533.335H566V537.039H564L563 540.743V518.521Z" fill="#77638B"/>
<path d="M361 728.704C361.365 730.168 361.717 731.635 362.062 733.102C362.26 733.919 362.457 734.735 362.66 735.576C362.998 737.951 362.812 739.418 362 741.667C360 739.815 360 739.815 359.875 736.459L360 733.334H358C359.129 728.704 359.129 728.704 361 728.704Z" fill="#EDE4DF"/>
<path d="M393 362.962H395V365.74H397C398.322 368.188 398.097 370.071 398.062 372.8C398.053 373.728 398.044 374.657 398.035 375.614C398.024 376.328 398.012 377.041 398 377.777H397L396 369.443L394 371.295L393 362.962Z" fill="#3B2A1F"/>
<path d="M341 347.222C347.942 353.481 347.942 353.481 348.125 357.117L348 359.259L347.688 357.465L347 355.555L344 354.629C341.925 351.925 341 350.578 341 347.222Z" fill="#EBE6E4"/>
<path d="M364 834.258L359 837.036L358 836.11C356.151 835.893 354.295 835.727 352.438 835.589C351.426 835.511 350.414 835.434 349.371 835.354C348.197 835.27 348.197 835.27 347 835.184V834.258C349.083 834.077 351.166 833.905 353.25 833.737C354.41 833.64 355.57 833.544 356.766 833.444C359.519 833.349 361.42 833.46 364 834.258Z" fill="#D8D8DB"/>
<path d="M369 798.147L373 802.777L366 806.481L367 801.851H369V798.147Z" fill="#ECECED"/>
<path d="M371 777.778C373.024 780.589 373.321 781.662 373.625 784.896C373.7 785.645 373.775 786.393 373.852 787.164C373.901 787.733 373.95 788.303 374 788.889L373 786.112H371L370 787.963V785.186H372L370.938 783.045C370 780.556 370 780.556 371 777.778Z" fill="#EAE1D8"/>
<path d="M532 188.889H542V190.741C539.043 192.11 536.258 191.723 533 191.667L532 188.889Z" fill="#D59A7D"/>
<path d="M287 779.632H288L289 787.039L284 788.891V785.187H287V779.632Z" fill="#E1D8D8"/>
<path d="M338 820.37L343 822.222L339 826.852C337.938 825.173 337.938 825.173 337 823.148L338 820.37Z" fill="#E7E7E8"/>
<path d="M553 162.963C556.375 163.194 556.375 163.194 560 163.889L562 167.593L553 164.815V162.963Z" fill="#5C3B31"/>
<path d="M519 162.963L520 164.815L516.688 165.683C514.446 166.281 512.213 166.91 510 167.593C511.648 163.016 514.231 162.724 519 162.963Z" fill="#5A3B2F"/>
<path d="M346 659.261H347L348 669.446H346C344.714 662.568 344.714 662.568 346 659.261Z" fill="#EEE2E0"/>
<path d="M330 333.333C331.709 334.836 333.374 336.382 335 337.962V339.814L329 337.962L330 333.333Z" fill="#E9E8E7"/>
<path d="M392 823.152L394 824.078L392 826.855C388.375 827.029 388.375 827.029 385 826.855C387.334 825.415 389.427 824.151 392 823.152Z" fill="#EBEBED"/>
<path d="M350 681.483H351L352 690.743L349 688.891L350 681.483Z" fill="#F0EAE6"/>
<path d="M515 171.296H519L518 175L515 174.074V171.296Z" fill="#36241E"/>
<path d="M554 171.296H557L556 175L553 174.074L554 171.296Z" fill="#2F1E17"/>
<path d="M649 628.702L651 629.628L648 632.406L645 631.48L649 628.702Z" fill="#E5E4EE"/>
<path d="M431 376.851L435 380.555L430 379.629L431 376.851Z" fill="#554331"/>
</g>
<defs>
<clipPath id="clip0_17_788">
<rect width="1000" height="1000" fill="white"/>
</clipPath>
</defs>
</svg>
